<mxfile host="app.diagrams.net" modified="2022-01-07T08:08:15.222Z" agent="5.0 (Windows NT 10.0; Win64; x64) AppleWebKit/537.36 (KHTML, like Gecko) Chrome/88.0.4324.104 Safari/537.36" etag="M_yV2lhsXttZfkgiVUJU" version="16.1.4" type="github">
  <diagram id="mnqwfpy8yQ-GfK-U2sKn" name="Page-1">
    <mxGraphModel dx="1662" dy="762" grid="1" gridSize="10" guides="1" tooltips="1" connect="1" arrows="1" fold="1" page="1" pageScale="1" pageWidth="827" pageHeight="1169" math="0" shadow="0">
      <root>
        <mxCell id="0" />
        <mxCell id="1" parent="0" />
        <mxCell id="XDjXojaW-XlBuK_ekFIJ-1" value="H和V是固定座标（水平垂直到某个点）&lt;br&gt;h和v是相对坐标（水平垂直移动多少像素）&lt;br&gt;Z不区分你大小写（闭合）" style="rounded=0;whiteSpace=wrap;html=1;" parent="1" vertex="1">
          <mxGeometry x="310" y="130" width="420" height="180" as="geometry" />
        </mxCell>
        <mxCell id="MLWIPbm4_-rRTycVkqap-1" value="" style="shape=image;verticalLabelPosition=bottom;labelBackgroundColor=default;verticalAlign=top;aspect=fixed;imageAspect=0;image=data:image/png,iVBORw0KGgoAAAANSUhEUgAAA44AAAK0CAYAAABMYWPrAAAgAElEQVR4Aey9+9MmR3XnWX/A7C/r/WV3woGkBaGVI3bc3oB4KQFewpgVEmYQF7XGjkWoGxWSkLGRsJFaal0tAd1gHiEkTHdLwNhjM77pZe0pJMFEOMIe24Cxjd6WuJQ9jpiICceEL1zVje3xnI2TmScrMyuzLs+16nm+3VFRt6zMk588T735rZOVlRH+gQAIgAAIgAAIgAAIgAAIgAAIgEALgazlHE6BAAiAAAiAAAiAAAiAAAiAAAiAAEE4wglAAARAAARAAARAAARAAARAAARaCUA4tuLBSRAAARBIEPinbxL9t18jOvtGoj/N9fJ7GREWMIAPjNcH5Lf6zBVE//VjRP/w14kfOA6DAAiAAAiEBCAcQyLYBwEQAIE2Auf/iui5nyL6/f+J6E8uIzooiJ77Ob385RkiLGAAHxivD8hv9ew7ib78Y0R/8ANELCK/+2dtv3qcAwEQAAEQIMJQVXgBCIAACPQm8JfvIfqjFxA9cx3RX57GAgbwgW3wgbM3Ef3x/070taNE/3y+9+0ACUEABEBg1wgg4rhrLY76ggAIDCfAw1J5iNufv4WoepToL05jAQP4wLb5wFfeSvSlHybiUQX4BwIgAAIg0CAA4dhAggMgAAIg4BBg0fjF/4Po2VuJ/uIUFjCAD2yzD3z1ONGX/i+IR+cWiE0QAAEQEAIQjkICaxAAARAICfCwtT/7vyEat1kooG4QwqEPfPU+oi/9KyJ+aIR/IAACIAAClgCEo0WBDRAAARAICPzlrXp4atixxD7EBnxgu33g4B1EZ68KbgjYBQEQAIHdJgDhuNvtj9qDAAikCPAsi1+4lKh6ZLs7yBBAaF/4QNwHvvgjRH/32dQdAsdBAARAYOcIjE44lkVOWT6jasxNURaU5wWVqzbSlDNbeUFjhj1x2+Ar021AnqL/4Eaiv/g4FjCAD+yiD3z1TqIvXjrdexgsBwEQAIElE9igcCypyLKmSCwLyrKcZr1FWUVV1WfR5LrTdhMui4yyLKOi7E5rU1TlQKFZ0SzncgoaUowtb9s3qpkW7yOv53b5ivbJtTw02XS78kfB/+B/hljYRbGAOsPvXR/4wiVE3/6jTd+RUD4IgAAIjILAxoRjNcsTAtF0TnsqR52PFnIs5tILCzARY+l03WLQCN7uhERUUTmbUaEEIJc5QBAbAV2U/UXxKDxqCUZw1Lnoav/KtMOyhDVHBotlR7q3z1eUEO7l+0twhE1m8defIPryK9GBdjvQ2IY/7KIP/Onrif7qrk3ejVA2CIAACIyGwIaEoxFwiQ6oFoN9I21uaFLny9mqPBL5x+nrTn7XJSJUdTpf1JVlSeWsoKLIKfdEbK5EyYzPV669cUuIo2ne9Wmhy0I5bxNZSoAOjI6y5FXCvm8bJOox5+FqVuj657P2KO3SxGNFaoi0ioAvr86T85Ue7bUzwhHDVCGSdlEkoc5Nv8dw1R5/GZAEBEBgVwhsRjh2DkdtF5bpxlm1cDR2yTuYRpSFUc4852iqFnQ9ZGJQHROlUmVUyXc9K1N23qV0JygcFRAWhSpSm9OsbayuiOyC48kL/pO8pH0Xym6CvtKjvjsjHP/kR4ieey/RX/wSFjCAD+yyD3z9BNF/+l963B2RBARAAAS2n8AGhKMWRq1RMuY+SPBI5K9U7wXy8M6SI2YsJuT9x8627I44+hEkzrAiFWUsTTm2jO68bFJ3w4ugcRQs8g4ol9pXNLp5D9zeZMSxNpUZmAigtOPQdZ1Zry1pY/adRf5JPnU22+ErOyMc//BfEn3tAaLql7CAAXxg133g9zbQVVrkDxCuBQEQAIEVEVj73TAlhmL1U2l7vBeo0y0wnFMV3iX29Pl+7yl25dWsLYtBPTzVeQ+yEQEzgrhreGoz+8FHxiEca7P7tHEY+e3XVnUZvCWCb7FJibbXV1Q71GrYh7dNe9xRrD6GBQzgA/ABIgjHbbq7oy4gAAILEFircNTvkTnCqNNwM9yvQzzWndnYUFV9rDPCSe1irxYufexvzytW7arkSXQieYt4zHLKzdBNjqiu+t/YhGOyvir6urz3ElU75/od1W6fiVu1zb5S/9bidd+ao2sVjvdSec1FlF/zFio/3yJWP/8Wyg+9nGZn7l2amCmvySg7dBHN2sqFcGjwrs68nPJrbqZqKmw+/xYqunxnBf61NQ9fIBy35taOioAACCxGYE3CsZ58hGfLtMNH+ww7LGWimJxSgqnuzHYLx6pyhq965afFnkSh8oKjghFx12iDdF6NpJ0H6iijiqh1TRgT5tc25Fe9R6jfx5RonXxqYRPCUYu2gd/HXKpw1O3GglHbMnyW1Un7Sug7kX35rbX+htXQ7cjFUzq0VuH4MVIC7pqbGwLF7XhXd1xEWbZckafzfDmVUxFAI7FTCUeeTOvQEtmd0Q8Gys+nHgzcrD5hlR96y3DBeubl+r37O1J5f4zIpCmW+GDC9d/h2/fS7FCmHpa0PlBZh09AOE7p7g1bQQAEVkhg9cKx0u8dymQx8u6iCJXONU9UYt/9y9TspGHATTqz/M4hf/uQR9KpDrwaUudHHKVjnyo3HIUn7xNmyg4WsesTjmr4qvmURz4r1buNMtuqFng9Io8p4ShDY/OCZvaTHyXNCv2ZFJ4ZdrHhmnN4LfuKKpfbuedkN8sUjiov074pbi3VmryvtNRNTqnfWo8Zf8PfkVw/mbUSjo8SVetZtHB8Z0t579TfvWX217SlG2avEo5KiAy7bl1cRl0OR+jUb4HF/OL87IOBM/cYP7iHKs//7tFC6g4537/M+gFB+hodfWZRmk6zzPaoPn8PxRa3DLYpD+obu6ZaAn+33MY2hONkbt0wFARAYLUEViscnZkx49FCLepSE5HUgpAhmLTq/T5fVNTpOGKkO/6twrH3rJmVFVLqixdq2KgRFhVPdpKKnkrEMXGeIzKpduV85XMUXNci/CRF5QlIJcgLFn/6Ux+NfKMCSNuX4l6L++UNAU1VN3ach+2qDlkf8bhE4aj8yPpGu2827d4CX2lWqnGk/q01Tm3XAe4ofuPRtS3l4Yyyw+9MlleLCo4cXUSzz3XbVn3uHupaSo5iHnoLlT3SVgEPZXPiIUJ+6CIq7ngnVT3sXCfnpZf1OSPoWXwHfIaVZfJxfeBzRpjaY45wHFSWvq7Nv+gbkfLbyrDRyW4/THGI+k/AkdMo4ejYErsuTJMqc+7jEI7bdX9HbUAABOYmsFrhqMxi8ZSyr71z3uykxvOy6RwRoYRjXlDJ7w46k8no48OHIOqqOBFHI8hSkcv243XUkof8sY0caZNoohaDtWDUNjeH6qpIrPn0h1eeFT/x2WlVfq2RUxHpmxGO2lvCT5GkRHihI6PesGNJm/K7yHHzLqkXKVNtXLdV5Kr0Ifchw1R8JV0be8b+1uyRLd0YlXDUnXrpHKuOc9DBbnaIjVhICDvvftErzcupdDrvXJ62g9+5fCeVzjK74+VUHOJhtXrCsvzwOxcUVfOLkyaXvnl1i24rys+8hWZn+qRvKVsJseCBQOPYvMJR+09xpqv8jFrTuO2/LOFoRfGjZKPf33jUPvDQwpEfQGi+3J4qnb1uXiYtLNx6yjaE45be6FEtEACBoQTWIBzbTKrfKWumaheVbnrdmZ2pYao2imYnlTGdFxUyNENYXWHlZtS17YqB1rQScWxNpE5qEWdmhM21OAx1drfQIzWcd8aRShbLbrFGtLiCSPHqYKDLDPJy8137tomS9urkap5unbvMVUyysL79fbCR/xR9pVGJ5oHdEo6PEH1jVYsvNJQIO3yT6SDfRJVTrjqXsXATW27Sw1Y5vT0m53quP/fm+kHVoQv19qE3D8pPC8e2a+6h8vCFWkAOzHt13OfgM+CeI2I5ti7OpMqWiOBNnr9Vd1yo36G00eCbzFBV8RPXhyJ5y3V3cJT65dGosnDWbRlPU4u2SBnz+t83HtEPHg7Xddb1ZX8y/t3gfiHNPvcIqXT2Olc4Ltc+YaPWEI7NPwY4AgIgsJMENiscjbiLd/D7d9q1ECris5KaIa4yQ6YSRB2iKekJKxADXFbV+A6kWKAjZ1bURKNqOo1c0Vg3hKPh2sFgFMKReXfYqYfVhoKvQaH9gPFD8REvcYOfdza9M0VfSdfGnoFwXFbnNNU55oceuoPMHVbVSc44EhSUayI+2RyCTPLMWXgqcfJmqkRIDsivWzhqm215/K7aAkJjs9cacdfFx0bigvZqq3f0GlNeQzyZh4zBcR2NDsoUHwnSiqi110jbJ9Jxepu2rR4Dzyn/sQLQ+HrAl9OEZSt/stdBONqbMzZAAARAYA0ENioc2yNpWuBEO/MBGOnMxmd61JPzSD5jFI66OsMjarYDYKKpARaTLQ/l1BMG6QPTEY76gUDHsGIl7BYTjlaYRwH249W4dEXC0TRqPVFKS2dP/MNdy++gYW/PA/Jb65l8usnUUNWPEn1jHUsdQXTL8wVXxI4zl5lo3mVqqKR7bXT7czdRcUgL04InYPnGR2vhyPXk8+xPhy6j8nOR8gIWtXDsSisi6DIqgzyido40jW4PFvXp+iom2ZB61g8QijNOvkbMece+4YokJ22Kl8ojZoubT1fbuGl7lJmyJXJchKNENEt5iOGkrYVjXXYtHPnY6uzzfBMRx+ney2E5CIDAUglsUDh2dcgHCseODrR0mMcrHHm4afheH7d123DetnPGTyIRsz6CbOMRRxMFjEejnd/AosIxwsfJXW+2RSQbic2BlQrHFflKqi7O8Z0Sjl//KNE6ltNGAHIURZXnDPG0xxK2nL6sHnLKEcSovU5+LAqfrvOqjvFwyDc7191DMzO8VEUknbQhCysco2XWZajrTB2L08FxvvZpbZ/7jjdHXfPDb/ZsteU/zcNsL6QZ2/b0m40YlkjchVQcuyfZbtVpTm+Gz6q/GVxOiltoqyPwo3XuOh/mJ6JN2+6ysQLUK8eIpJb6WUaKK3O6jEovD7ahzke1P0cUk3nWab28E+1ZHXP8UT2EuJCK0/H20HWUdjNrzxc/qoazhrYpm+3vImFfo84h+4H7EI7OXwFsggAI7DKBzQnHzg57D1FkWq69M+sL0C7hyDN6lqnZfFYsBqKO2Mapj7iKXK9FYdukL0bUN975i1q4koN9xK0qWNVvzoij4Wffi22piWbmRm5bEvOpKfpKR5X4dPtvrUcGU0nCHcVldz4T+dUdaBFD+l02JeievonKp++hKrWcvomqpzmSGBEIT99kRSALsVgHXguH5rVaYEmn/kIqWMQFAmCQcFRiLyJQzHGOcs5UXUxdlcDj8tnuoJNvrikOs+BmocgM9HXyTmUoNrgtrUhSgrQuRwnWQLCk2l7nYdopbE8lphLnwrRf16JIjQY5rQWnracwseJI6j9QJKl8mm1bC8eb1DuoeWvdE2VGhKOw8dqDH0zwiJewDaX+Th3V9YEt7GNhW6p09rqEfRHeqTbtdRzCUc9sX/BM7/oTXovcysuOPPTf/5zkgf/Qsrgfx58ZS/6rZlSE80EkEzdPsH3NGe9NupZXiuLBgWb+GzvSZbs5vyz7pJ1n3sQcy8od+ayKwIaEoxmW2fr+mk7TGXHq7MwOFI4z/R3D6OjPtYsBI+BSnJRoyilqq3hMRDhKFDMlmOz3CDclHKM2S4WC9dzC0fhg7zqKmO7gLeZN0VfE9pb1bgnHh4m+vurlxmDYMQulukzVSW4dTcFCpU6v7b1bTaKihyhzRO1GKp++m6p5Fo5omuGtYTlaOL6Jql6MTD0P3+gwNccOpfK4W0+goqJmTh2ffpOJssbq/nDrNfmxu53yTZ4mv+i5Rt1SNhvmybo49n+dbTRRT8VD5yntXinmsbrpMvrZ+TCRqhcLR79s+vqQfBJprXCUvBPpVF15+HOzjZX/OP6gfJ3TOX6qheON3jGVzl6XLnepv90NC0eeQT3+Ko7MID58zZ8TG/bP/M3s85mstozlgW3LzO7eiCf+5nSqDxQtp/5bHf8MnDzY5QdTBQ3GIJ+Gi9okZctDt+a6T582Wq0lHGSu8W9kS3+oaa/7qou73agHtyuL8QFupdrZcNRBmyVUElmsnMAGhKP8sNo74Fq8tKcROtKZjd9Yh73jqPJKiYk1iwFtS0uUa27hWH+mQz81kz86pf1uZVGwgI5H8loZSaPMvTb+0bgrJTKcRzjy90VVZ7yff9UlD7huir5SVzS5Jb+1ZIJtOaEijtIpXt1adYKzy6hQ33G80YgeXzzO1wG+m2bHbrSiTnXSWwVopMNgO+fx+i8sHG2ELp6/qndM1IlwTNkXyVc4N0WULntQXRqi6WGi2LGGYHPq+fSNTvv4wjHd3gNFkghHR4hpUXajnp3VFdFmyLOI19oGbVtDrDbqm0jXwkAxd9pQtdGhN1FpopRuJ9Vuy3l73UAmLfbUdXbaSdJvWDhKX8ByGPpbjqWPCp+WG/iQB7ot2WhR2P631xWO3BdUowL6ihIjTDu7ECZdqp+TroLuB6Sioem/kfq6TrvSBS98Js1yiG2JtLZf1V881sKx0qOZWh4mLFx5ZLA0AmsVjvbD7hl/diKoAztdnlPOi9zket7Y+txU7Y/ciK1iVlJZ+gt/S5FvzDZtYGI4/DD9FFB+WCLI3HXZ44mMiOsWWyTSmhB31vS2m71h7v4xssMvWgSZ5h0XlbbcOTdif1TiDwQMU7EzOcTCN8TeOL0Jg/w0rXv2jw23TUnJh2uBcJyEryQZ1v4rfxRb28TNpxXmiE+uRTjWne26E80dYRaOQWTs6Rup4E6zdGQHruv8I53iRl79OuODxNbX67pKB73f9dqWzAoFiaTxEMaAkdSjIWpMHpGol9jSJSwlnV6b/NR7lsyzO3//+rANNBsRbW7Ezd8WwRdE4FxhKAx4LQJb/p4Ga59fWCex0bfN1qPBWCK9Ed91bXK2xSeljkowem3EZeuIuRvVVm1l/UHb7ddFbF/iesPCcdE7pdy32/Op7/Ox+7vKQ4m39nRybbws3TdK9rHMRbWgsAdMv7BdcHJqbWd8Uj2xza5VNJOFTlCn0HjvPH/Pmx/ox69Js5Z+YZj5mvdVv48fFLosY7ZVKpBQFCHLWFqpA/fjw7zlXHPtt7P0e1fTt2yWjiPzEliPcLSO2u5Q6gfHwo2/Z9jWKQ9qm/6hckLtjPWNip9sOOLU+WOqym2LswdiQOx1hVef7dqWoCKVb1szXX2jKtWQ2oxSw02DnJe8yzeOFfy4jcj16yQ3k0hExGm7JHf78EHfBHW6yIOLIYQc8ZilnoJO0Fe0aJ+Tc6ItGg+IhnDeZFolHD9C9PXVLVqs8JDEj+hI4+EbvPKq02+i2em79DEjAorTvj085LE4dgNVHXbqTvoNVD19V4/lBhORMmUn8q6Fn29TlJmxPz8med6lh9MqodB+faOcBAtbbuO8KSvho/W9Q7eFzSdRb3XelMFDMHWEbMC1jXxvUCMgpG1VfTttjf1OAxuUjTxUNeSredRtIeeFk5uPb5tlY4WjXMvru5x3avXsvLMW34zW0/UHZb9riy5LC0f5raTq4tq1hO0dEI7z9mfq34/rk64oqW/k+m+M33eIDVH0BYW5nv+m5vF8bQnmb7P7d8fmL/2LHr8tv++lhVK8nk6dTaHSH7Xi1IrONsFla7CmDdOvsv2juG1SF9+oeNo6jeHVY0hzs51ZePaPWNZlYmudBNYjHNWQch5bzRPPLL96yrntDyDMn38gelx3eGbwfuSmNDiP2AWlfoJlb0x5EX9vMbzxpdLFyljmMXUDD59CLaMAFs6Jui8le31Tan0ntG85/DCk7cYIX+lLcpzpVi0cRXgYsag60YFw1B3ruuOv9t2O9dd1pz473FM49ugw2XuQmmlTRF684920J56OxYYrkrX4MCLFq0/8+kY5hp0ILStmRCA1zpuymFOHcG7kJXnG1kY8KWZB2w3Kx7Rjsj627IEiSXGo/ae2qS0f41O2XYYIR2m/u0g99JD3ONUER3KuXnO7uuJV+Ygt1/gMc336Bpod5nck9bUqneXdVpe6rLrucx7bAeHYdiOOCb629PFzWlDERRk/zK07h+nyzMPzeAGRaKMRMfyge8afJvNFazObMNDQTBEXU5Ku+0G3K2rlqs2s3Vn8HTFoha4ePqpGVskxZaiTNmU4p+d+v1yXWKsASK4npAzTOu6QKgXHN0RgbcJxQ/VbbrGrEgMirM0wkLTR/A5ioaKxyZlf0xcv7Qzf1P2b/9Ky3p6M4CvTbsuVCse7zOQodTRFiSPbGZbOre602851KIiUcKnzaOscx/OXcsJ1v854Q9BZgRPmF4oRfV5drya+CdO7+9oWFse2fiGHsNzI+f62umV3bJtyWDjmPcS7tT+0d1TC8SPqfc3cCrV5hKPLjX2dozKhgG36mC8c9Xktpn0bIBy7O+S1BNO34Xax03GrNn/LFv2bH3vArwVicx4HEY6zsqTZrCCecyFXQyDZl/L4g/XI31ydj0kvr7W0VrdLOPYQTa35j/Wk1EuPzFKvjOX61S33YaIeDSZpu+ui2nzgA0spb1F/67YOKeYlAOE4LzlcBwIgsL0EVioc3Y613lada1ccudEV2+k2IspEZYaIoVT+cTHT7NTH0vUtX6VTn2QI6t1H+BpxZsUzc4kIQ8++yHklNizHwI6GkOs+r2Y+5Q4Rf0ZEvl3I2093X+vZqsr2hVHzvOTZr13s9YpDKNg4ryH5JGyLDlUVO4O1siN8wNHMV7WRRBz5Gtn+uj+UW6Wzv5UhdQnsGtLuo4o46o67dLCbayOUnLvzIsIxJvj0fA8ZZcmRXk7h/GDcjJYqZvK6jXpart9b5BCc+jxGMMeFCA41Ysw8MDfvFfq5856J9PEoLJm7YqYn1bECRIRjIvqlI17+ZIqNciQPpzyJjIURs+79Ru4rOxC1xSstLga57S0/mz5MK23qr23ylg0l7Hv6UEs2OLVmAhCOawaO4kAABCZAQAnHh4i+vp6lFnZBeU+/UXWu8mPHlS3V6TfS7DRv6463HO+yU/Kvnj5O3Yu846jLTOWtheMbqUoyOm4/O8ERuWY+ug7ZoVQex81nRXIq3TIMk+J0wErSxM6bYzpy2byO3xXVUcPmOd9uv0627k+/kQr12RKJPnbl454XEeUei21rHn3bnFSdA3aK0ZB8Erad1tEIaYNK7bM4jNgdO6ds89Nr4ah9gX3Lq6eTRy0cuawhdYnYJj7TtR6VcGyJillh499j5xaOKr+mEJVPevUddimRxabIlaGjWozw5xzUxIW9hpW6dazFtBctc0WJqovzTqII08i6KZa4LJ+7x9REO5v1aytP6u7WYxXbRlS79XS5qCIdMegIay0cg0/BkJPWudareyP/eL0gHONcxn4UwnHsLQT7QAAE1k+AO4pfe2htiwi7WJnlsTdS+VRgyynuuOdU9rRR5e92HPpss9hryV8Lx5xmp26g0l2OvZEK+36bEQCpfJ7Swjg7xPkcp+ops5wSIXYhzcK6m2uKUwETKSNxXgkONayUebrl8DcVI+VIfmp9nKpTMqnahVScOh5hc5zKY3UaJUS9PBL2fs2Is1R9bB6OSLLHUnk+RKQ45HVdpc5POQ8GOvNJ2Kb8L6O6DXS6sB0tj9CXIv5rhaPirCd9mh3LlS/pb4lqXxLhqMS+8ePajhYenXVtuXbHhCN36JUA499LdFKAUDx03aIlGmXSGRGXFJ5JwdpVjjkfGbZKKs8FxJrKsxbRnnC0Zvni0h7mjeB679wad+JiTdpTrz0RGPytKEpJGzc6nn887cJtksgWh1dLAMJxtXyROwiAwBQJjEg4xsRbm9CMpV/FsVYxyp8U4Rk1Q9EX7bzrKJ79DJPqqJgIYOz6hDC0dWw5XylBykJRIgFcTkSYWztdMcjRxLa0RniwMHOEsxJTrSwS4szaIIJmHuEo9WyuVUSvUYaUJeuEbQ3hyEJV19trR/GDoBz90OGNVDnHRTjO1DuR2t78sH4wwX6kzvP7bfydRxai3M7mgYNteye/pR7bQeGofiPJyFG7eGi/5RtxklSNbSKLBaie60GGiDbLMhG2MP8FhaMSiszDROREOMq+tkOEYxCl42vUJIi18GzavZ4jcWE3pD3b01pOpjrCJ7aGcFxPmy+7FAjHZRNFfiAAAtMnoITjjOhr61m0ECxMeXdSeepOqp5KLKeu0t8RC9KUT91Z25u6dpHja2KxLuat5TxV2KGnqgOtBIrDtw+LpwqaHb7AiNQLaPZUypcK/TmOU6nzcvxO85mUnnbYqJ5cL+v++VTH2P6I7VY4Sp5D1rq+2WHxd32tFpNXUfU19vtIfk9dRTP2ebYpuLa1Lfu0VVeaXRKOdtilROckWuiuRTy4x+rttj8AobCIpjU28IyeanIc9/ve6qFPWoApYRSbPVWEozMUMyZm7DHPMCN27QOn5oMYrVMjw0K9a9J2e8WtcKeXcEww0mZJ28eN9Nu3hYcS4fxFgc0zidcER1MEIBxTZHAcBEBgdwlsUjg+pYVhHRVrdlKi55zOtO7w97zO69ikromIh67O9tTP85DJeQRjo94JIWTTaSGVH+sShH3TGdGlxF2s3e6k6lRB3oMGseWpq6g4dAHlvIhfHGIxFwi5BYSj+GZhhLIXuXZ8OCUGIRwlqhXOnUqUiuBIdKzrhs6T2Nh2l2ijFZKpe0NwXK6LFZYcglpROZtRURR2iKy9x5nJcWazkkqeHCeWrxxrGQ6qBWVgq/h4Y90tZuJMW9qmxTYxfx3ruN2uGEyJZGHipm1a7AtH93yMTXte7tXYHg+BrReO6kbY9r298bQFLAEBEBgLASUcP0z0tfUsdcRxPeWtq14oZ2rteYeekIiF4+GX0ezUHfHfwKmXqUhqcWrO+j11B1Xmt1WduoqKY1dRmSor+A3Wkck5yw7y6+Wjo4w4xoZDxr9VGBcL9c2Wh1EW5nMXeVGSfF8vLdKGd2zfBQUAACAASURBVPhFlPI7kxzVK+VTG/wZMjPhCr+3zd/7nhl7/PcrjfBI9ef428r8Tiaf55lVlRDV72pyNFAx4NmdS663L2L4nC2rp8CLM/XzrQm3Db/1Uq18J263257utjHHYxI571gdz58TxNi05+Vki80REdgN4chPk9TNaUTkYQoIgMB4CXBH8asfxgIG8IHAB6qn7qDZ1Ry5eRmVwbmt/c2MSjjqzraNyPWIlqU78+YWbCKBhXlxMD6c0b1dD+vwy+c4QpvVBDwJIRjaLBFDJQxdU2wVwmgii0b+BqT+wPzMCOOVCUczvJPL4SG2dsirDPscyTuOIVeFr0sYdp132iOavy6ENBv3cURMTDqZYXOUBFYvHM2TJTXEQH5A867N93kq1+/6YFVOzzcVCbX3uQhpQAAEdpYAhCME066IoiH1NJFGfu+xuP2O3fGRUQnH4XfldGc+nteyhSN/vmOmIolGUMWL9Y5qoWjes5Q+nFZ9XjrZ4agpf8Mx3j+sxTaLYzXBjiPwmI8Vez0FnmKaz6jk70VaUaqFUCiQ6/3N90F9XzBDfxVfeadVHgrU76z6E/vIeSHvr/383XNxkdjta24e2B4DgdULR/UkK3wStNh+y70jzdQMY+j7wdp0RjgDAiCw9QSUcPxFoq9iAQP4wM77AIRjcMtvFw9B4vl2jViUzz8s1Hcb3A+NCzw1xJaHwOb6O6YiCOX7kyzDmlE1U31Vn3i+8wGa76pa2JVqeDL3p33xVotsqZ9ei+3tbV/nH9qXYKPaRkRreA32x0hg9cKxT60X+kE5T0W6IpnqiVSf9H2MRhoQAIGtJQDhCNGMhwbwAfEBCMfgVt8uHoLE7bvq8xqzyKQ3bvRuuLBQUcVZQQVPqlNklBVm9uLB7zhW9v1IK6RyE2VsRDES4ogJSD9XRTz1O55DB8+1g+x31rLgKCm/wlWZ9z8bdUnl1972nnCsSpW/zqnJhoU4R6P53dTexafMwvG1EZi+cDRPpewPujHef3h0Ew68Nv9DQSAwTgJKOH6I6KtYwAA+sPM+AOEY3KcX7OyzWOQhntJfi83EKqPEYqIiGI/KIrGeDMft8+V6plaVh2uzL2JY7LROjsOzzeYFzZyPR3oCibQQLGWSIfVuZaEik+o9zsbnRNhGieDVaFWesU+J1EkW3HLEuGWuudj6d5bgcmwmrrmE+QpzbivT9qazra6x9pB6P7SZM46MhcD0hWODpPlhOE7YSMIHzNAFiMQoHRwEgd0mAOEI0YyHBvAB8YFJC0fTJxrQ2XGHLjYmeVEju0Q8pEdwuX9AeJZT+R6j+5Bfz6DajLvJDKxqllUlLv2IYyg0pD/H6dVkOPazHW5/UGxmy0TE6LJrseNEBptmuVUyUUwVvjTRRC1YrVDkCGdRkP6MiIilplh0M1V2rFI4ypBdZ0Ii/S5pu12ujTpymo4QapbmW63SD+e5TkQsqvbMVSTY6v+gP855pCZB8mzBzkYIbKFwNOO1I09zXMIr/4G6hWEbBEBgWgSUcPwg0Vex7CqDkmcOPcTfQYQP7KoP2HpPTDiqjjdHuZx38fpHlJx33kRoSGRwwNrVqbq/paNsLBadwJ3zd8EXF5xOaTexwQyrlKGNmVsA672I0NOiSESOLxzVJzvMNXpbdvp9lF7VKbDBqUxzU4aqRuysE7ONvkiuzy1ni+tam6CZhCxjJan6Wn9KCU0j1NlPlGh09s2nVuJtL59L4XxL9Z7oQu+0xiqAY0sjMErhWM0KmtWePUdlu34MXefnKBKXgAAIbA8BJRxPEn0Vy64y0MLx9VTBB/A7mJhwlKiQitjlJroz4O7sRhwHXJZOqt51S3fqysKZbCYYEqoyFfHoCNduzVaR+j6lTaj7fXbXs5YFjiu0u8XbSoQji0uJ0nn2rWZHRXbzlAgMyuTZZu3nTYJzsivt5NRB9edTalGuU2vTLzdtHG8n7wLsbIjACIWjPKHISb4pNA+b1vC7cu6eP5Z5Csc1IAAC0yYA4bjzYqG6/QLKDkE47uqDA6/eUxOOC959df+pWzwtWIxzeamGdZaxsKGkqng2UzMcdC5VoYVJKvKqxXJOOQ8vTWtcY43ppw6xQ4lC7tdKhZprtiFlXzP1OI9Usxm1VLHdaH6vVU3aE5ssqf1SnF0fgREKR115feNyXlgezMQ8vXCefJicEQYfzBIXgMCOEVDC8QTRV7HsKoPq9hdQdugnqIIP4HewY8Jxx+72qC4IgMAAAqMVjlwHDqPzi9T8kuxc/8z13uWxY3NljotAAAS2lgCE486LBQhHPDSxD00gHLf2Vo+KgQAIDCMwauHIVRHxyC/vdo4eaNS9Hvaqhx6Y/UYUsnEhDoAACOwyAe4oPncCy9YyeC9VT7YvpYo47tHs40eobF3eCz/ZWj8x9wAIx13+a4C6gwAIOARGLxzZ1oXEo3znMZ9ROeMXsPFuo9P+2AQBEIgRUMLxA0TPYdlGBiqa6Ey04X4iYPA2D2eFn2z3bwXCMXaXxDEQAIEdJDAJ4cjtwrNjzTlg1X6zUXUIvHGrO9jiqDIIgEA3AQjH7RYCrULvCBWeqHwBzZ7EA4RtfIDQu04Qjt33TKQAARDYCQKTEY4LtYZEHc37ksOHvC5UOi4GARCYGgElHN9P9ByWXWOgo5EvoOJqnhznpVQcyii7+jr4wi7/FiAcp3YHh70gAAIrIrD1wlF9p4afHvO3gWYF5bIN9bgil0K2ILAFBCAcd1QoXaejjVdfR3pynNdR9fGXUpZx1BEPEXbtIYKtL4TjFtzUUQUQAIFlENhi4ViRfFSWZ2W1OjH4FpA9vgyayAMEQGA7CCjh+D6i57DsEoPyav5O3EupfO59tXB87j00U1HHt8EfdvX3AOG4Hfd11AIEQGBhAlsoHCs1mY6KLGb8sdWYNKyolOhjxh98dYTlwkiRAQiAwOQJKOH4INFzWHaGwZNXqhEp+e23qnbXEccrqWIf+PhLTNQR/rAz/uD+9iEcJ39LRwVAAASWQ2CLhKMrBvnbjzOKakaXW1XSrOCZVvkpswxnLamKaU33OmyDAAhsNwEIxx0TzbfqqOIhIxSfe9BEHGW/eX4nBZQrpnZpG8Jxu+/3qB0IgEBvAtMXjlVJRW6En4i/TsUY8PEEJD7XEdDBLgjsHgElHB8geg7LLjDQQ1T5Pca6veuIozlmI5K3wC927XcB4bh7fwNQYxAAgSiBcQjHslARv7m/lFEWlPPkN0MFYwNJhWhjgwkOgMAOEoBw3BlxpGdRzSi/3ReEDeH43AM6CpllVHy8Fpi7IKx3vo4Qjjv4RwBVBgEQiBEYh3CMWYZjIAACILApAhCOuyEc1buL/LmNaxv1jQlHeu4WPaRViUdfaO68uNrmKCSE46buxCgXBEBgZAQgHEfWIDAHBEBgBASUcPwFouewbCuDSkTjoSuofPIWqoKlvP0HKYuee6v+tiN/F1hFKeEj2+ojtl4QjiO4KcMEEACBMRCAcBxDK8AGEACBcRGAcNxi0XwLlVf/oJ4Q7dAVVDlRRDtRmkyYFllrsViLx+zQS6h8EuLRiqxtfNgC4Tiu+zOsAQEQ2BgBCMeNoUfBIAACoyWghOP9RM9h2S4G77ZDTbOr30pVS/tWJuKYTlPnld/entd2MdzB3wSE42hv1TAMBEBgvQQgHNfLG6WBAAhMgQCE4xaL5ndT+fF3d9avWzhqAVU9uYNCqkVwb6VIhnCcwl0bNoIACKyBAITjGiCjCBAAgYkR4I7is/dh2WEG1W0/SNkPv5aqHWaA34C5B0A4TuwGDnNBAARWRQDCcVVkkS8IgMB0CSjheC/Rs1h2lUH5lswIR/jArvqArTeE43Tv5bAcBEBgqQQgHJeKE5mBAAhsBQEIx50XzRCOEMwQjltxN0clQAAElkgAwnGJMJEVCIDAlhBQwvEeomexgAF8YOd9ABHHLbmxoxogAAKLEoBwXJQgrgcBENg+An/wA0QH74FwhHCGD8AHiCAct+8ejxqBAAjMRQDCcS5suAgEQGCrCXzxEqKvvIPo2buxgAF8YJd94Ox7iX7/X2z17Q6VAwEQAIG+BCAc+5JCOhAAgd0h8OU9oj+/FoJhlwUD6g7/Zx945p1Ef3zh7tz7UFMQAAEQaCEA4dgCB6dAAAR2lMBfHSf60quInr0LCxjAB3bZB778r4me+8kdvRGi2iAAAiDgE4Bw9HlgDwRAAASInv8q0R/+SwiGXRYMqDv8n33gCz9E9HefxV0RBEAABECAiCAc4QYgAAIgECOg3nO8nujZ41jAAD6wiz5w8G6iP/xfif75fOwOgWMgAAIgsHMEIBx3rslRYRAAgV4E/uYJoi/8K6Kzx7GAAXxgF33gSy8n+i8f6nW7QCIQAAEQ2AUCEI670MqoIwiAwHwEvnI50ZffQnT2TixgAB/YJR/48+uJvnDJfPcNXAUCIAACW0oAwnFLGxbVAgEQWAKBf/hroi9cSvSVmyEadkk0oK677e/8DdcvvFi/67yE2wiyAAEQAIFtIQDhuC0tiXqAAAishsB3/4zojy8meuZniM7egQUM4APb7AMHtxJ98UeI/vZ3V3M/Qa4gAAIgMGECEI4TbjyYDgIgsCYC3/4joj9+IdGfvQ2iYZtFA+q22/79lRt0pBGicU03VhQDAiAwNQIQjlNrMdgLAiCwGQI8bPVLP0z0xUNEX3kn0dljWMAAPrANPsCjCb50GdEfX4jhqZu5u6JUEACBiRCAcJxIQ8FMEACBkRD4b79G9If/G9EX/k+iP7ncDGGFiISQhg9MygcObiH68hv0gyD+5AZmTx3JDRZmgAAIjJkAhOOYWwe2gQAIjJcAf67ja0eJ/uAHiH4vwwIG8IEp+cDv/wuis1cR8YMgfKdxvPdZWAYCIDAqAhCOo2oOGAMCIAACIAACIAACIAACIAAC4yMA4Ti+NoFFIAACIAACIAACIAACIAACIDAqAhCOo2oOGAMCIAACIAACIAACIAACIAAC4yMA4Ti+NoFFIAACIAACIAACIAACIAACIDAqAhCOo2oOGAMCIAACIAACIAACIAACIAAC4yMA4Ti+NoFFIAACIAACIAACIAACIAACIDAqAhCOo2oOGAMCIAACIAACIAACIAACIAAC4yMA4Ti+NoFFIAACIAACIAACIAACIAACIDAqAhCOo2oOGAMCIAACIAACIAACIAACIAAC4yMA4Ti+NoFFIAACIAACIAACIAACIAACIDAqAhCOo2oOGAMCIAACIAACIAACIAACIAAC4yMA4Ti+NoFFIAACIAACIAACIAACIAACIDAqAhCOo2oOGAMCIAACIAACIAACIAACIAAC4yMA4Ti+NoFFIAACIAACIAACIAACIAACIDAqAhCOo2oOGAMCIAACIAACIAACIAACIAAC4yMA4Ti+NoFFIAACIAACIAACIAACIAACIDAqAhCOo2oOGAMCIAACIAACIAACIAACIAAC4yMA4Ti+NoFFIAACIAACIAACIAACIAACIDAqAhCOo2oOGAMCIAACIAACIAACIAACIAAC4yMA4Ti+NoFFIAACIAACIAACIAACIAACIDAqAhCOo2oOGAMCIAACIAACIAACIAACIAAC4yMA4Ti+NoFFIAACIAACIAACIAACIAACIDAqAhCOo2oOGAMCIAACIAACIAACIAACIAAC4yMA4Ti+NoFFIAACIAACIAACIAACIAACIDAqAhCOo2oOGAMCIAACIAACIAACIAACIAAC4yMA4Ti+NoFFIAACIAACIAACIAACIAACIDAqAhCOo2oOGAMCIAACIAACIAACIAACIAAC4yMA4Ti+NoFFIAACIAACIAACIAACIAACIDAqAhCOo2oOGAMCIAACIAACIAACIAACIAAC4yMA4Ti+NoFFIAACIAACIAACIAACIAACIDAqAhCOo2oOGAMCIAACIAACIAACIAACIAAC4yMA4Ti+NoFFIAACIAACIAACIAACIAACIDAqAhCOo2oOGAMCIAACIAACIAACIAACIAAC4yMA4Ti+NoFFIAACIAACIAACIAACIAACIDAqAhCOo2oOGAMCIAACIAACIAACIAACIAAC4yMA4Ti+NoFFIAACIAACIAACIAACIAACIDAqAhCOo2oOGAMCIAACIAACIAACIAACIAAC4yMA4Ti+NoFFIAACIAACIAACIAACIAACIDAqAhCOo2oOGAMCIAACIAACIAACIAACIAAC4yMA4Ti+NoFFIAACIAACIAACIAACIAACIDAqAhCOo2oOGAMCIAACIAACIAACIAACIAAC4yMA4Ti+NoFFIAACIAACIAACIAACIAACIDAqAhCOo2oOGAMCIAACIAACIAACIAACIAAC4yMA4Ti+NoFFIAACIAACIAACIAACIAACIDAqAhCOo2oOGAMCIAACIAACIAACIAACIAAC4yMA4Ti+NoFFIAACIAACIAACIAACIAACIDAqAhCOo2oOGAMCIAACIAACIAACIAACIAAC4yMA4Ti+NoFFIAACIAACIAACIAACIAACIDAqAhCOo2oOGAMCIAACIAACIAACIAACIAAC4yMA4Ti+NoFFIAACIAACIAACIAACIAACIDAqAhCOo2oOGAMCIAACIAACIAACIAACIAAC4yMA4Ti+NoFFIAACIAACIAACIAACIAACIDAqAhCOo2oOGAMCIAACIAACIAACIAACIAAC4yMA4Ti+NoFFIAACIAACIAACIAACIAACIDAqAhCOo2oOGAMCIAACIAACIAACIAACIAAC4yMA4Ti+NoFFIAACIAACIAACIAACIAACIDAqAhCOo2oOGAMCIAACIAACIAACIAACIAAC4yMA4Ti+NoFFIAACIAACIAACIAACIAACIDAqAhCOo2oOGAMCIAACIAACIAACIAACIAAC4yMA4Ti+NoFFIAACIAACIAACIAACIAACIDAqAhCOo2oOGAMCIAACIAACIAACIAACIAAC4yMA4Ti+NoFFIAACIAACIAACIAACIAACIDAqAhCOo2oOGAMCIAACIAACIAACIAACIAAC4yMA4Ti+NoFFIAACIAACIAACIAACIAACIDAqAhCOo2oOGAMCIAACIAACIAACIAACIAAC4yMA4Ti+NoFFIAACIAACIAACIAACIAACIDAqAhCOo2oOGAMCIAACIAACIAACIAACIAAC4yMA4Ti+NoFFIAACIAACIAACIAACIAACIDAqAhCOo2oOGAMCIAACIAACIAACIAACIAAC4yMA4Ti+NoFFIAACIAACIAACIAACIAACIDAqAhCOo2oOGAMCIAACIAACIAACIAACIAAC4yMA4Ti+NoFFIAACIAACIAACIAACIAACIDAqApMUjmWRU5bPqBoVytqYqpzRrGyxrppRkRdU1pcM2iqLjPJiRtEiqoqqtqWtpLKgvIVra762zLYCtuicYlXE22CLqomqgAAIgAAIgAAIgAAIgAATGLlwLKnIsqZILAvKspxmLdqsT/NWjesrmuVcXk6zeVUdmTyynIqosiOiakY51yubR3iIjTHhLGVz3vGlaKlXNSu0XSxqQzbW5ni+trxUAVZYdgjbXun6tG6dpqpKmhV5qyiuU/fbYvHOdU5VN5pLVTa5RhPiIAiAAAiAAAiAAAiAAAiMi8CohWM1yxMCUQukfAHlqKKWLNyC9lCCoCXqFiRv7hqB1SkorBBr2tDM1D2ixXSq7sr+aOH6uugpN3trVyjMu69Pl+2K5Q7hmRC8VpgmxBpHeYuisEue50acS3ksHFvEvMugc9s80OiEyRlVVM44wlzbsYDbdlqGBCAAAiAAAiAAAiAAAiCwCgIjFo4mepbonGtROVR0OQhFIAX5Lyoc265vDPW0wx2DKJxjptr0onA6WsnRTC8/c01avHULv7rYUgsdbzht9/XpskU4hmJUjJ6p6GwY5Kztka02G4yYY8GYs4A0Yi1oX5WTxzPgaM5JibG19j2JNvrXl2VJ5YzLjwjXgocwc9Sxu6axcnEMBEAABEAABEAABEAABDZFYLzCsXM4aruw7APUFwD6ijbh15lnJNrIkTA17FPVR6JO7Ws/mmgEUVckzggkEW+eqFRiqE10xWpWBe+Qdl8vZcdy08NzY8JRhtdGhsc2Muq2wb0kaY88NEgxbY04G3slTaJdObrJUVJuS8hEt1WwDQIgAAIgAAIgAAIgMEUCIxWOWiD4AiqC13TaY0GlSOrIIV1OPdHOYmK0KTpN/jwkdsbvZXZFSHX5bfVOiiFVOxFhaWEaZ+VHzRqiU+Udijbe998bbLVNibWIcJQ2ZIGViATWDRfaUJ+JbSXtSdlCRMlrTAHNhw0VqShjWWr7rSHDbLWXYQMEQAAEQAAEQAAEQAAERkhglMJRdd4lotMBTaVdYKKcijv8towFhGMs2ui+o6kE0qLCcTViRMSQ+x6hu63FZli23ndFbqvoioo1nYdblr8d8gptsA0X3UjaE7VFZ5G8Rp0WeyMCuGHBMFsbl+MACIAACIAACIAACIAACIyIwOiEo560pk/HXChKlK3HNVUdHZIokb/W7w+qT13wu2iyqHfW6olXGjOOykyqeaHfYTPvufHMqVZYiXBMRNV0tK1Us7raa6SKspY8nPLEllS0Ln1cMk2tjUiyAj4UQnrftbVVdDXEmrRbKA550tnUpEihDcb2BFOxp8mA2znuL3JNjIo6p4a3xq/1r0nY6ifCHgiAAAiAAAiAAAiAAAhMgsCIhGNFWjRmVLQMW2yKgIr4PUL9eYuOWTPNsEg/qiXDOnnYpdlWE6zoWTjV7Jx2n883hQ6RFgmcr6RXZVjRpcZAJj+REdrjirHai7TQknOewDHRzjCf9v1YPerStEhyBVIohML9jmGernBU37Fklpw/16suR6Kf8SG1zTKVxa3tKu0ra36XcrhwFLvygj9ZUttbEwu3EraGybAPAiAAAiAAAiAAAiAAAhMgMA7hyN/ZM6JNCaNBQsB857HSHXUWSypiWI8/9ZqhdUJLVW5aFGjx0C64VGFGyHniR+Xd41rPWmcnEDuecLTJfHFpD/NGcL13Ltwx/D37jTiujzWFUdwmk3lQPn8zUufFn6swE8mYCWWS379s2BAa7uyLD9UG1ycDW+oTcfFbSV78IKDlWjcfeZgQK95Phz0QAAEQAAEQAAEQAAEQGD+BzQtHFnxKNKaihWZIY6IH7osVk1YNEXXfXezXEEoYulHC4DJVVst5nTxh74LC0ZZthmVKvSUC65adz8xELe4QThWVTYtiW1UrkkKRGwjFiIASm2xe7kYkvT1tfUBHIRcXjrUfcFSzkV+LLc06VDQrnKGz7rVq6HNqUh/hlTjvvVtrSWADBEAABEAABEAABEAABEZJYPPCUWHhznWKT0KImeSxjn46r1QZfFyXI0NBYylVWR3CMRmVFOHoirm2bc+AOpqaGn4q0TuJ3MbTtQtHjqzpIb9mWCd/x9G2iwghY5iqj59fsy2cSriCSw6z8FKijKPGXBZHH8WGnAolgCUxrwMb3FPOtm4DZ+ixikI7DxJitpjrW+vAadxrRWSnPuvRetxn55iPTRAAARAAARAAARAAARAYHYGRCMc2LlosxAVdu6hsy7VxLiKE/DQ9ynJFhX+xmfBF3rPrWneLirjAaRG/LbaxaJbhohm/z5nxx+1Nfe37fL5o0+LM1KNgUdbBx5bPZc1MlJmv1xHBquIoqUBzBaQug4cfV32EoypHT0okjKwgFiFsbZHy6rVcUx8Jtlqu9VP6vPxz2AMBEAABEAABEAABEACBaREYv3A0QiA+UrVDrAxoCyUYOJrIUTcWGI1rO8oy71jmLKLUrKozKgo9wQ7brvJXgowz1nmJGOZzsu1FtBo21AfiAsfPt04dRMrcE84wUWW7J85MnZkLv4daFDRT4k7E/IwKWycuoyVybAUXRxkdwahs4eGgtUCso5w88RG3hwjpLjHm2Bt+k9H4keJsbXFB6O04Vyddy7VOqt7RUf8a7IEACIAACIAACIAACIDAOAmMXjjKsEMtWEKILUIpTNq2b0SFEqdmO2sMSRWxZMNiXo5aDGnxo4eJsmjkT3jM1BBMGULqDikVscjXyvbcwtEMe+VyBr/jyLOcWsChOKuc4aq6ynWbhGk9JP5OH8GlRKyZKEdFMf0suoaq6jaoRX9DBEpIs8WWxjWhCS3X+kkHsPEvxB4IgAAIgAAIgAAIgAAIjI7AyIWjH0Fq0luGcIyUIe+ueWHOduHInwSZ8YQnUV2pr2VByUNAVfTOEXhaOJoJbXpOYqMETj7T7wSaGWnr4aWugHW3JXLXJFkf6RI8pi6KTVfaOte0IOZhqT43zTIGMl2eDJ11mywpAlvEX/IaqUrLtZJEr9O2+umwBwIgAAIgAAIgAAIgAALjJzBu4WgEnCsGfKS6c26jdf7JXnt19MxPrgSEfb9Phnqy8PPT9doTIdo6WUq3wOMZVPX7gToqJxPgqMgmi69gCKxn25IEj+YiUb0B4ihVvjqu666GCMeVt6lKojz5LmTQOEkRKLYoEe/Pepq8RmDKtTFdK2nUOmGrlwY7IAACIAACIAACIAACIDANAiMWjrrj3Rwy6oJdrHPO78+x+IoLz4rK+mU7fzZN14TEtooq8rcKZ6V+p68onPcB/UgpixVrQ0OYyDuBjrDM+b2/jLJAKIXvTnqmSb5GLJXJz0GkmTajevG0nE6/L+lYIOUnBBfzKsx3HHmG1ZnL3mYTL8+eDjaSIlDZ4vAMBX2Dq5NxRz3qlMNsra/DFgiAAAiAAAiAAAiAAAiMj8BIhaMZPupG/CLstPDrM/yyebGIxqb4aqZVR5TIjJfFokdFAtVkOK4gyako9OclitIVEkOEo5rlRb0v6YopXxSxyC2pLM1sperdykIJMZ5YRi2hOEqyde0UFvVnM6zA1VAcMSxpZSIgiUqa430Fl5qEx7znaN+7lLxjtsm55tpn5JxvrvcZbwAAIABJREFUsUVd03i/td+1TipMjuPDwB4IgAAIgAAIgAAIgMDECYxOOPL7bfpbgvyZhoCuiUp5Qqitkx9crndrEdQezQwuVsIxEEOSxA5FZaE4U5FKHVhz3590RU9TOFoB2yJqpDhee6JIXSPDPY1Q5Agnz4LKEU81yysL2LjwdfNtTEDjzLpqbbQX6DoxRy1ceebVhOiTekWGh/IQ3MbCNjeOuwytEckNj5Gbim2xM7W6J5grR0v50x+Jf1IPk4AfGjRsV3aLrZG68YOGZAGJcnEYBEAABEAABEAABEAABDZIYDzC0RUoLQJHiQEeXpqbD8QPgeeWMUhwugIwXmDs1Tx/aKcICb6ePzNRiwe9LUqEhXO3wEuKorh5A4ba1naqT2GYSCUPPY39q2Y6oirvW/J3GRvDVFWV5YGAG5GdbzthSsO8wYwaOUQOBMJR/LGuf786+ZHbSDk4BAIgAAIgAAIgAAIgAAIjIjAe4ajmn9HRnlVEY0TEqXcao5968FvFTS+iYFhnn8Uhf8tRBFctyPySeI+FqY4U6rISkU3nwsGiKBA8TlbBZmBnye9pLiE81rv8wBxvN7DNOxfuGLFv+Yfn59xX9ZhzkqQ5i8Rl4yHwz9/8r3T+D3+Fvv349fTtU9fS399/Gf3d8UNYFmTw9/e8VPFkpuf+48fov//NX42n0ZdoCfxnNb+VXfGfJboisgIBEACBuQiMSjjOVYMBF7EY7C2CjEDIlKBLTdYyoHDSoiclPpVQ5bJ4eGmnTptDFHF9OEorOnaI6ctIuwzBpd5/XEZbLFChZdRjgeJx6eYIPP97p+mbJ19L3zld0Pd+43763m89SOefOkPn/+MvY1mQwbnPfVLxZKbfefxm+uaJy+ncZ3+R/sc//cPmGnzJJcN/Vvc72QX/WbI7IjsQAAEQmIvATgnHuQjhIhAAgZ0m8M/f/VsVYfzuY++kc09/ks5//pexrIHBdz71s/Sth66if/ovz0za/+A/m/m9bIv/TNr5YTwIgMDWEYBw3LomRYVAAASWRYCHFn7zg1fQ9379Pjr/+X+LxWPwHjqaZbT3Qz9FZ73jy+P0/O88RN+avYH+8T9/aVlNutZ8tsl/zt70Isp+6EV09MGTdP7zJ+nspxZv5/0r2X9eRCeXkFfs9zl1/1mrs6IwEAABEOhBAMKxByQkAQEQ2E0C/M7d937zgTkF40naf/A9dPZT3MleYFF5zNtJP0knfyij7IdeRftL75wb4XgTC4l57eu+7tzvfpS++aErJzlsdTH/MWw+9VO0l71opQK9T/sp4Zi9ivY//29Jby8u+Fg4Zle+B/6zm7dX1BoEQGCCBCAcJ9hoMBkEQGD1BPidtO8+dhOd/9yn5lxuVRE5mVxr/jV30Oe14QSdvJQ757fOWYe2cnX99m48sYK8/XK/88s/R8//9j2rb/QllrC4/wgDzfnoA7LftT5BZx/4KTp55YuIfW5vSW1/9sYXUXbpT9FZ9XswfsVCssU3z37qBLUtWjje2ppGXT/3b1CzmqL/LNEVkRUIgAAILI0AhOPSUCIjEACBbSGghhievJzOPfX4AqJoaIc/IghMtKmPcFQd+6wpMqVzPr8AjtilOvLrE45s+7c+/K8n877jcvxHuMf96OyNr6KjVzrLpS+iPfP5JP2Q4kW0d6k+f/KBUNyfoP0Hhj1M8IUj23YrHb30VbSfFHUiLvt9oij9YKWtDGHUvZ6S/2zLfRT1AAEQ2D4CEI7b16aoEQiAwIIE+JMQ3+FoI0+GM/dyi4o4Hn1ggTw++ZO0l72QTn6yO4+zN76Qskt/ks4G9u5fkVF2xS109pMnEktb3hy9Sl2n67d3YypvPt6W97Bz3/3ln6fv/caxBVt2PZcvx3+ET9yPVHtnL6S9K15FR3m58Sdpn32gh7+cfeBVOhrJ0WLrL6l2NsdV3q+i/Zgf2TzE5n5r8c3ahn7XzZN+Sv6zHi9FKSAAAiAwnMD4hWNZUJ4v7xMM9rMXqW9eqM8tJD5iP4Qv293je5FDsiTFYkapr3VUVUXdy6ASkRgEdpIAf6fxe5++1+lUz9OhdTr8sc5257FP0vllCUcvEuVHgNRQ02THX9chHQ3y8wrTLSSaA5ue/8yH6Vsfet0k/HFR//FFvviRI+ye/iRFHxQoQdjvQYMSbY7I1Pvt7Rm2r92/4pa5fivrFI5T8p9JODmMBAEQ2EkCIxeO5nuFWUFL+/xgWVDWmt+Qj8ynfEbszmrx2EvUifCL51vNCsq5A5gXVIbq0Xxf0P4hT3UUUx9yHGSf2Jlax+3HURCYCoFvnngNnfudh+j8059YYJEO/yfo/AM/qiI8nb9P53e7d+MHHOHYbUctJPy0defcP75Y3TgvXT9l50Kc+tv1d8cPTcKFFvOfD+j3Uh1f8P2GheEnHOHo8LMPGpxjybYxDwVUlPoTpPzEbEd9Q/nwj9J+Mr94mWc/+QFKLVLm/gO3UGw5ydHsgeVFbTd5TMV/JuHkMBIEQGAnCYxbOCqRxx+tTwkU93jP9luDcCwL/dTW1Wgq0pnsCPhPed3rGrWyAjEnP2jaLXiVXanMbb6+LX6Hpd+5VBGNuuAACIyUwN/f81J6/rOn1TuO/J7jfMu76UiW0ZH7573+cTr3+L9RQ1VPPN6dx8ENPFT139BBYK8Wju+esw5t5er67d3w/hXkHS93Kh3/5fiPMIj7UbS9B/iL8un79QMN9lEt4pr+Y31f5f2jtB/4lz2fOK7y7fm3r/H3JuLPXeW1nZ+K/4z0tgizQAAEQIDGKxwHCpncV1Hppl2xcBSB2NuetKUtZ0oqchN5tKmWIRxDMWoyL2davNuyUhvdNqSuxHEQGBMB7mC2dUD7nYt3+Ptda0RDQggcPP5+Cpd9Ixz3g3MiHMP0sf1Btj0F4Zjy2eX4zxqE41OP08H9Wvi7wjHqGw1ffD8d3P9uOujxUCPlV+KbqfPLPg7hmPJYHAcBEACBfgRGKhy1AMlyfp+P/8f/VUoE6uGg8RTmqDsMU4SjHGtcOK/4qagscjUcbbWiUQwOuXTb3R1xjAlHGXYbGR4rpth1tw02KTZAYMQEVMf/ycfp3EKLIxwln8feTwedi1PuYybi+Jhz7Mn30wn+xMa8UZzUdRzdETufZFHQZasRju94d2ed9j373boM255Kx385/iNsIn705ON08A4dYd53/el+9heOckfazrat5Ouv91+b6Yi18rnQv15IJx5jO3gt12m7ste+2/Ebc861qWVblfnady/4OxN7utdT8Z8R3xphGgiAwI4TGJ9wrIxoVO8hshjjyFpzQpjeopEkv/APod5vijwRP+4wWN4um+8VivOwzRwBzDJq5ieJFlmHtgT7KmuxW8rh/Zxyh91cwtGI82IWlCnCu3JlfWiD2II1CEyLgO74P0bnnlxk+VkzVNXJ47Frgk8mNO9LR+4P03Nn3Tk2yKYHtci89BraH3Sdtn1Z4nTvHQ8uyFLXfyod/+X4j7S570cHj2mWSjimHgJEjnt+FfEFLRyvoYPIOf070L5k81G+HPfNobb18rPX/uzCPjQV/5nW3RLWggAI7BKBUQlHFoNq8pfMiXzJkFUrgCoqZwtE9iTi6LSyElSRP7ThH7P0u3s62sjvYnr/lNgMjnkJ+u3I8NfQHtnXdoWiTe+7Qna4cNR5SDnNdThpUWhDv/ohFQiMjYDq+H/2MTq30GI6/Pc5+bid7TBvIyqP9E0fXh/dN8KRO92R8/vveCXtsyiNnGs71hAGl15DBwPzaMs/dW4qHf/l+I+0i/Gjd/wsHeFIs2GtI44hd51WCfVe7fEgHZj2t8Lxs4/ZY7YdWKx+9jHiNJJ3vHyxuWN93yvVg1bl62r7lbQfs9eUa+2IpRlwbCr+M7b7IewBARAAASEwMuE4oyJ3RKNYKeJRRdD4Cb2eMEdOD1pHhKP/CYuY+Ikd6ypVhnhyFHJpc8I6hRpRZwV1aKPen184iv2hOCTSQjbSTia6mxbYjvnYBIERE1hOx3/9wlF3/l0xqIWjdPa9DriNfpqoUe8OuIiTa1REde8deu0J3t55dQiMIJ+pdPyX4z+azcF9r6yj1Jdy22oRFxdu7Q8KvPZnts6DDCscrV+40XAt7NwyXRHZyDdoN++85C8PM8x+w39MvaO+25Z/y7mp+M+Ib40wDQRAYMcJjEo4ptuijjKqqFc+Sw8bTWeiz0SEo39JKMD4LB+LCSX/Sm/PDPFk0egL0/SQz0Y6L0N/R0dJXZtCu8N90sN+U6pOiXOTX8UCXgv0WcUCsi5Hop/xbJpl+lZjDwSmQUB3/M/Quc8usvyMHqp6n5OH7ag7x6QM24F2zrWll+vMWnXqsxfSkfsecOx+QA1V3XuHe0znr4SCemfNKS/IM1Z/KzA+q+vHeeuyWVwMyyuWf9uxqXT8F/Wfg8d+hk689oW1YOT3Fl0/+uwZ844jRxx95nX7+MdjXN12s9cpn3Pa0t230UFue37g0F2GV+5j2md01FSu1T6avfZnar8V0fjaa2jf82e5Zr71VPxnGndJWAkCILCLBEYvHNXwVfv+YEn1cNaMcvU9w4FDQV3hyENJw2CgK6CsRwwVjlpAZayujIBsDvN0n+bGtmuxZs2QDZOnL95C0RbuDxCOxFHFgnT+tWjPcz1EuDEkV+xCxNGSwMa0CaiOf3mGzi20GOF4r5OPKwTDvNW5jI70TW+vf4BOXML3ENORt8e5XH1ur3jAr8u9eqhg47h3rWO3HFfXSTlGOKq8jSDgzr+kXcF6Kh3/xfxH2jOjvUs4whjxo/IMHRQvpOySa+gg5Kza6JW0Hx5v7JtyTJsp4cjbIhQlvbdvbHltomy5JrYW0Zhl1PA7449H7n1A1yuWJpbnwGNT8Z9p3z1hPQiAwDYTGKdwrFisyPuOPGtqGGGsPAHJoiwvCpqVPIFNONto0HxGOM5U/q4440igUkyUN6KLTREW5Ort6mhgc4inl8jbGZC/CFEWzW15RATw8HccTQHO5D/tw4QH1MOzHTsgMC4CuuN/ms6Viyzv0hHHe508HjtMe9lFdII7yI8Fy718joVjJP1jzjHHpgNzTaYERiyNKxzNeWVDRtklh+nAyau7rro+utPPeQX7Jt/6fMyexY5NpeO/sP889i7av5fFfs3Z84vyNB0UF8XbUHws4TO2nZVYu4hOqHQiIt9F59T1LDxNW3n7jqhVDwz6tefBvWa47SWvpCOXiHB0r63zzbKLiAWktVPsWMJ6Kv4zrrshrAEBEACBmsAohCMP0SzLGc2K3EyOoyNwrmBUQyTz5ruNPNspvxfZiOjZd//qyvKWDLVUAoiHkZrT9r29WUGZmtHVva6/ILL5J8p3c623++XvRlv1kF33ExlBHkpgusJ4WMRR2cbtYj4xkpnobi3ocyrUMNy6FnpIb2Yile5xbIPAtAgs3PFPdfhNZKVxv3Im5/IEQg8RcHDvu1oEoC8c6w78UNFoOvae2AyEo4gZGy1yhcFytqfS8V+O/wizyAMIYe22Bz+IUH7nt3lKgKkIo73eaUsRivJgQz2cqIWkEqz88KNLmBpb9l97kf77rMpqs03bkGUcZZW6L3c9Ff+Z1t0S1oIACOwSgXEIRzNLqhZDWhyKoJPGsMIuPCEJWBRWJalIYiMaR1TxR+zNkFcWhrNGPjIZDIvWMJqnz/lDQ52CzaYVjdwJXKpwrIeLZrkW1zxcdGbfQ2QDfOHo2VKwQDbpU5WwEUouy2Vl2qPidzWlzn5EmNuNRX4V2CCpsQaBqRFQHf//cIrOLbRIh3+BfM6YCOWZefP4BT2M9fLDtH+504EfVC+TR/YK2veuE7HxCx4nLSwy2rv8XXTgpZ+3DvV1U+n4L8d/pN5xP7IRR2Yc+Ilug7C9JD9Jz5E/03bqeo521+f8hxsX0Qn2QZOOz9lrY2185heUv3EE3U+rfSl5rc2fo/K+Xy32W9R1n4r/TO1+CXtBAAR2h8AohCPjrkoziUyDvZ5Mxg7/dL4fGE4m07hUHdCCSv0RzAslLJvCUK6saMbfjcw4amZVElunRFpKc8l5vo5nMVWibVnC0RkmmisB6ApEIwa5LBbNPFxXma3T5CwAVV1M/RQ7qWuwdoWjYuAK+JqLGwXmeut3UCWy6doW5I9dEJgQAdXx/92P07mFlp/WQ1XvWSCf01froa2n583jfjohgpGHAF5//7A6nf5pNbQwY9HYsEHXby+S58H1IlJfQSfuGVhmC/OpdPyX4z/S5nE/UowvuZoOlI/w0OOr6cCyC9rm9P3Ouftp/3L+O/cK2jfpdXvV+1G/Z19gIXjJ1bSv2rdOf3C9384H97zCRBlfQSc8v7lfPcjwfOb0T9OJSy6q01mf44cPV0f8TrgMX0/FfyZ0q4SpIAACO0ZgNMJRc3dEnjN0S4m+jn33sxONNuTvQyrRxYG52FBUuUKieCIe/eOpMngiGf7+pJxfqnBkE3iWUxsiDcVZ1ZhhVkcbWcyFaaU+kbUVjpFzcsgZFmx5yjm1HlCedx12QGBcBJbT8Y93+KOdctvhDzrD8whHFgn3XO0Ixnk64PfT/vWvMLN6Op16z85AnHjnPk4sHiTilF0SE55BXYPrY5ym0vFfjv8In7gfWXFuxByLRiXgjFDT503bKSHntsH9dOL6nzYPEbSYyy6XfSnXWVsxJ2LRiEhzjRKinnD9OB14YlXycoWj62OSb53ORshV/XxhGvONPsem4j/juhvCGhAAARCoCYxMOPJw09jkNlqQiDCrzeettnN+SrXXJhyVeNLv6KkIpxM15P14+c0yli4cvSK6xJk+r2Z0HTJ0NCkceViqO0xVD/udeRFZMbDLNkmHNQiMm4Du+P8SnfvdRZabTcRxWB7c+d+75CK9qAdm3KkO8jh9NR2RNHatH3jVD9o4wngzHZwOrg3ziu2fvllHGpXgS12v67d3/X1pTqdvNhGmljSx8hPHptLxX47/CPeYH91nZtLNKLv8ZjpQvOSY+Ivssy9JRFLyrNe1wKyP1X5/n/MAgYVnnUaE697l+gFBqx/Y9tQ27V3CPq79dc/aX+dty2f/ufwi4jT2mM0rkr7j3FT8Z9x3R1gHAiCwywRGJxyjjWFmEo0OFXXEXvTa8GCLcPTFoi9g1bmoAWEBZgIeR3Q2U4RHhgiu9rTKTvuOZntaz4qUcDR81TDczs+fDCjPKxw7IDAuAtzBfP53fmnBpRZWg/I6xcNTuaPPHf5X0IlTcTueUMMNTefbpD1y+dX0xD330TML285lduUzZ/0WsG0qHf9l+M8TLJi4XdXDg4safqDOX35z0Na6TXg4qfYBEY9aYIZ++IwMKb385qSvP3O99sMnIn5Y+2DTvrAstS++ze9Isq9G8oxet4DPuPlNxX/GdTeENSAAAiBQE5iAcHTe46vtrreUEJR37OrDya2UcDQCKRVVVFHEkQtHPUTVndU0LuQ4XWOoaUo4GpDe7LX8rigijkkXw4npE9Ad/4/R87+DJc1AhOO9a+M0lY7/Uvzn1FuUaGTxeOSeAYxPvYWOXB+kPxXsi1+f4sjyy+kJ2R+8vpeeYGEZlpfM5146cfnL6cSQ+iTzGv7bnIr/TP8OihqAAAhsK4HRC0cdQXPFUNAUSxKOfqQuKIN3uZyeUcT1D1WtP5vhC9+4cIzWtUM4WiJqEh79+RO/LAXJn4zHXoQNEJgWgaV0/JfY4U2Lt+Gd5ynnNZWOP/xnnH45Ff+Z1t0S1oIACOwSgRELx3qimqZAqZsoKoLq082tWMRRHWsRp5yLex1PttMiItcqHJ1ZV/V7jW6VtXBkwVuWpVr4W5ky+6ubkifgybNcRRLD2Wqj+5xfY4bbuFD1ysEOCEyAgOr4/3+P0vNYRsVgKh1/+M84fztT8Z8J3CJhIgiAwI4SGJ9wNB+d51lKowKHPwFhBEsp33/sOYRUtbErANVnQHiW1Yyaoiv0CBZFekisEqsjEI7qUxjCKcFAZnxVdVRpI8NUuapmqG6dLpxoo/9+wpQQKPZBYLQE0PFHx38R54T/wH8W8R9cCwIgAAJjJTAe4VhyxMsRJ/wenfspRSFoooNW4KTSSXq11kM58zynPM/skNPSRN/6DUGVdy1zZWebOOoSlmySes9Q2cM2cZ5939MMonpl4Xyqw6v0sB2JOMaY984psK33dUgIAuMioDr+n3mEnscyKgZTiRjBf8b525mK/4zrbghrQAAEQKAmMB7haMVUoYZA1iaGW/pD98VMD5UMzyb3jeDMPaHJH7afUZm8KDjBQ1T5e41tqlGNaq3FaZBDvSsRPhaNbMNCgq3Odu4tY09H1dqzV+8/pibOab8UZ0FgTAR0x/+j9PxnsIyJwVQ6/vCfcf5upuI/Y7oXwhYQAAEQcAmMSji6hmEbBEAABDZFQHX89z9Kz2MZFYOpdPzhP+P87WzCf6pylpiF3NzdqhkV/KmrOW92PMIp+fC5MQ9B/apP/JvZA4zoytucH5Bja1I9kovnYWhNtpmTat4LDnqsuHhTTnxW+xWXjexBwBCAcIQrgAAIgEBAQHf8H6bn9ye23HUZZdmFtHf07oTtN9KRF19Ie695Ez3xMaduct1rbqRnnDo/87G7KbVsgs0mOv6Ba/TaHYf/3E1PvOYyv52dttXtdzedePGFdOSuu71230TbrqPM9fuPTPKXU5FSFTL6iL+/PFh4yCs0M2peKmU7rwC5rwNl7RMCRj/bpbxfv5JiXxcK8owdb4xk4jqr70L3+jmpRO6kgyzGh7PqX9bQlErUdvBs5FnxqLnG0ZYD0p7zP2SwmYvotwdkQ7ctT/5YOvOJyLwi6bVc76/T6YMHGGKPu/az2uBeScUYRgVukEBYNIRjSAT7IAACO09g/R3/tECLCzdH9LliwAjAE64odM/v30hH+OProbCMXaeOpTqdF1K6jIRtnh3zpVl/x3++n8L6/SfC82P8kIDbTwvDmDB75uiFanK4vaP+A4NYWn1scYHpPphIlxOpzxT9p+8rIK54HORypqMfnRCCJ4NPTfzXPR+BnXyvIfC6r62rkEjLs8ErwdlfLNfCkeesYL/uOy9Ebc1qtkxdGuo4VlpF5YwjzHJfHVAH9bqVfgDRLchiZTvHjL81v1igxSkfFzEcexAQHmvmo8sakoefZ4c45kk0XZE5cLssq8iDFoePs6n8jn3VmxCzh/AVm5y8tmUTwnFbWhL1AAEQWBoB1fF/4iP0/LqWR9+kPvbu//GUzkVzfeR4wrbjHHG8jJ5I2n2DFo5H7vLrpq67kE486uSbykvZGqRNlufkt4Q0kxKOS6jv4v53F51Q4jGjvbDNn0j4Qpvdyiea/tjXbzld047l+kgbs3X7j+o4ex3O+hbV6Pzb4Y5Bp7S+RG9Jh1St9aSCHM308jPXqPKjgiYh6BpllUbkuAIndi3PF5GryIwfRIullUJiecu55roWjnxuidG3ZlGDjoiw0Jj9dlCfQZsVVBR6UsX6d6LntpiZz5p1FmgfLPT77aWEnC1H5Sdtyu0gs+3XwtGmlQ1jQ9SdJM0y1sGXD6JZhpNk9oh61+yZYYcwtYUaPwt/w33bY+WwrKFr3YBwXCtuFAYCIDAFAtzBPPfEQxtcjpsOPwu0tB0HR95IJ47fQAeS5jh/pzWn/YjtB48ep4NHRSzwNbxvFnXdhXTiuN5XdU/l9egbaS9rt2tV7Nbd8Z/XV9fuP9KO0fUNejiqaVtpcyUoX5zTfvQaxw9cX4r5ROyYEqWhj2if3jtyfGO/q7X6T6SjbYdYDuj4+iLARLe6OsqmwyrC0ROVSnC2CbrQ68POc/xaKcu/Op62TmPqU/DAyPZ/vnDktCx4+kcs23Of92zAJtGuPHM+Cxduy656Ni0xjJR4SV/PEWJVRh+x4glHVyy6274lWiD3FVz+tYP2VD1WV07Tj1qsM0z7IHVzWRsrt9A1bkM4rhE2igIBEJgGAdXx/+0ZndvUcqfuaBy5s92GgyMXaKEodqrrctqXfVmb/Pynrumn16rcVF6PXEV72QV04pF221bBbq0d/wVcdd3+o/0g3Z59291L95qi6f8xn4gd++2CjjR85E71MGTvyJ3NfMVPV7xep/80o41GAHC0Y8ad/K7OcboTL64ZF2ty1oiaFpHZv0PsChZHDDrRT7Yln5V15FOZ4aQVs8I158ExRCev2Lb6bje/exdJN+xdwdCA+fe1QHDfFa1IRRlLw8Fm3YODTetsuEN6yQwfDaNfzG6IaOTsewpHtx1muf6igHtMbTvmRjcj7dXIw00zGuFofj/Bj6TqUv7mgZH/wCdKZrIHIRwn23QwHARAYFUE1t3x90UWd7ozymzH/U7af01G2YuvooOgY60Eg3s82ol3BZ7Ou9F5V9cFYjCVF4Rjp9tt1n/c9l7ytvjEI3fSgSyxY48Y4Xink+6RYneEYyzaONOjAdTriL06x13CcU4x0um9XQmkXD08VX8fWz/o8h48qA63pO3K07yP2SJyvbyDdJvppOu69XvXsj8HIWXfMXXf5TR+Vb9vx+9M1tFMubZz3Vc4mrzT7GW4a7pE9XAjaK90fvLwq+uhSrq8rjN9I47RqKGIwmSE3IjNiLjvsmtK5yEcp9RasBUEQGAtBHTH/8N07rfXvyiRmL2M9t2ylVgTMVnbVAtHc+zOl1EWXuvmoyJB/J5ZQQeP3FEv6joWjnXe5yQvNx1v3ykRRyetV8bqjq8zYrSIo23Sf+b22UeMT7S1pfIJ6dzNt947csdGflfMZT3+I51H/qZxqSNQM/MNaJnERoSjG2lpbJekojxyTeiQkoe87+cM22yN6DTK4ffy6syj19an9RDRyAyiOuLoZKSuCQWT/w6glOVln9jp2+FPXL70w7Ug6hZPalhthFmbUTysmd89bDS/iMcsp1xNstMyY2+qgCHCMSWCvDxSBc1x3Pp127X82+B3Rwd8h91k18uPDOMg2FhPypQIcWvMMUgOAAAgAElEQVSfiLRZW1UmeA7CcYKNBpNBAARWS0B1/H/rF+ncuhcRcB+NlG067XvXHbN2HVx3AWUvfgMdiJ0i9mS/sb5eRzOjT4AvoBNuua0iIUjbKCdi/xLSrKfjv7hvbcx/fusX6eCjx9JLWxuY9j5y55xt99E30N6LL6Aj111f+2NbeRs4tx7/kUhURl40zu2Aq85xP+Edj6b50UjVYZVerhUW/fLX0R+J8BjR694fXLvVT8MRg44I1cLRGarK5/g9RE8w1Wxs1KmRf/z316vDH7906Ud1NIqHbvIDgT5CIeSwiEl1lFExVMN3B+bniT7Xl9xtHtGa+7OJek8YeGKm9rrLg4FB617C0fip+PyA6jfqFF7Lw4NZkLNfOv5dqeHl+j3V8BKerKksTNR9nvZoZjjqIxCOo24eGAcCILAJAuvv+B+j/etepmZW3fvxN9D+ndfT/p1voBM//jI6YhbulEtnSzr38wpHV3wqcaxEQyAGUyKUBQK/v+aKzDWJgPV0/Bf3uPX7jxF7qm3SgqHR7m67pdrbpmkRpCxWrfDsSKeE7Zzi1Noy3/Ub8Z9Y9KJX57jFD72Of+qzG74I8HILrvfOOTvxTraIoIgIdAWnEoyS1snU2Yzn7yRwNxdl5ua1wLa8T6iFRbd40kW1c+hrjhq+aj7lod4n5Zl4DXP9Xcww4pvI2Wt/10/c7VA4GrEmYtHLI15OHZVN35Pkb5q/bhekMqtu/KFK3BY52uVzrTbHhGqlRwaw/fwgQT61kieHs4ol011DOE637WA5CIDAigiojv9vfojOrW253X42Qf6A7pnPKGQqivMG2r/j7WpR3+bjKONvfoiscBQ77zBDVWW/sX67/hzHdW+ng4dvrxd13QV04mGnzqm8HjbC0U3bKMfJZ4nnNtLxn8PH1u8/hneybbR/7V13u/XpgzveQCfYp6QdU+1t2m//x4d2/lrSG/9d3+9L81m//5jOdtjhXFAEqc6tExFR+9xRNRES7bIiAurjcp6HQXZFiziPeCd7iAhqT2vrYX5j1j430iN1WpDZHD/jyCX6vU77XqMrnvjbguFnUWw9hEN8qG7Fk+lESlOHOF8z1FmLE54gyE1cqclxRECKgJFPfXhJ5TLXbjPUWYsw8Rl9ld/+gS97eUjGi6yFX588xM6Ib1vmcdYyyVKUCxfNQtB8JoX9kf9pMSlRebFPRxk1d1fouhHhOYYRS/YjXkM4jrhxYBoIgMBmCHAH8/xvfnC9y8Nvp7MP3+aU+XY6yk+Tf/ztzrEP0vmH3077xrazaqjq6+ms2HrHHmXZnj3frIPJM4gMaLF6AZ182KlzKq+HX68ijl5aKX/F6/V3/Ofzv434D7NPts1tdPLFGe1dV/uX8h3XV1Lt3bNNlbAMfbXntU0/dfxwiXms239Uxzs2e6qIoI5OrhVSnhtqESIPmGJrrVNNRz/6W2dR73Z2vQLsji8c5LCIILOfqIM+G6SVLMzaF44t9iqR3E/sBkWsdtcVT6pNWx6WJNvBbwtu87Kcqe9i+mKwFoy6XZqipFLDLCMTFYXDgV27xyIclU2poaBhM7b4SitnaZ9QBIb51/v6N1z/VuTdU/ndJSOLpj6cjtNs0z8Ix21qTdQFBEBgKQRUx/83TtL5jS7vpZMXZ7T3tvcm7Tj7tgsou/j1dFbsPGaEo+w31keVGG3kqa5j4ejUWfJ6+L101l2OiXB00jbKWc25dXf853WmjfmPCMdjQZs9fLThS8N9p61NtV8dPdaWZvPn1uo/Xufc9yTdGZVObNe67rT6udR7EnGsj/CWRGUisZUW29w84vm6YjAlYsVmN62bs972haN7PmZ7e17u1Wvb7slxyOQ4nm/kWhyGLRiKmVh9WUTOOFLJkyaFCTy7Xdbudhhx9s/5n/SoC7APOxIPFNLnpX1jkcI6f70V2BKeXta+4uR+bsWUPssp54l5woZplMt2Rvg30k3rAITjtNoL1oIACKyBwGY6/qnO/lFfuD1cC8nhnf+hwjHVqQ1EJoSj55Wb8Z+TJuKYajP/IcRw36mF31zDVt0HHGvyl/DBz9qEo/n+nopG8LC32YyKgmfBZCEgQ9+kQ+p3gllM2Xe3vA6+52LeTlzg+fl6FyyUr3TwOUd325Tg5R057xgSt5sTxGxvz8vJdn2bXl3bih1muxq6ysKrkaUWVYobR7JbxFnjUveAZ7fL2t2eRzjq6yUat7R1I2Ln2+lWbXnbus3sbzHIOC2AQ+EbXLgFuxCOW9CIqAIIgMByCeiO/wk6/xtrXFSEL93pt3+EL/4JOmvsOvu2F1Dm7J+XKGHDbhGlR0zE8YgvRtV1L6CTbqSK8+ahjGFeD/8E7WUvoJMPr5GNsWFtHf8F3Wkj/sOMkm3jRq91u/X3nWY762GpR3r/PhplhT61pv11+Y/u2Lu/ZRaN5vMBVd25doeUSgeVr5XtVFQndM+GADOCQn/OI/IeWM93HBv5csGe6IgIoq7zjvHR/NX5mDCIHXMy28SmV9c2AyKc2pKrc/oae9/vNQRT+5z1n1QZalitRIVdru52KBwDIdW77ikjwuNDGPl2hjktuq+Ho/LMqoX+nA5/GoVn0M15GLCOICrf7dEmnW2xqLEbuB7CcQPQUSQIgMC4CaiO/6+foPMbXZzOfsIO2yGX8yIcZd+s91/tdmJ7bF/8E3SSr2FRGuR1/iNGOH5k/XzW1fFf1Ds35j/Jtmn6Ul/fif0GBvsTd7BivhT61or31+U/3PHkCTbcrxfUPlULgkJNpiLfa9QCjzukasZMFn9DBB5/BkANTdS/b86bhWNaeIhwqC0Lt3xhZyJgSjDI8Dvp7DtRFs9mOR/mrPf9/N00cWGghmiG7+u5l617u7d4aueQMltFtRondV5xQdJ2zslI3rFVh1zW7nZcONrgX++6c57N9zEda8zmEEa+nc28Fjmi8w5/N2q0QMHfZm3GgVVpnhhfpPzxXwvhOP42goUgAAJrJqA7/h+g87++yeXnzXtpP5+04+zbXkpHX83izth57KWUZS+lfdmfe63Lzl59pFm2FSfrZ7Oujv+i7rYx/5G2OfbzdPYj7nKk4Uu1cBzuO0o4xnwj4W+NshLpVv17G4X/DJ5EJS7wWFSoIbAqClILRBXZnPEsnS2d656d/lrY6W/bsWjwxZvu7Ied7HrinXYxUOcf/uIStnuCJ7xmA/s9OUaH9M5rrvEfK+DcfJQ9MgTaPRFsexxd1u62aWuZ3Eldo32RfU/NPspCKqGj3BLVZ0T44VHrNw7bfcXNLz6U2U+xyB7bW8xKPRS4b0YOn76XTDUdhONUWw52gwAIrIyA7vi/n87/+iaXnzOd/Z/rb4cVjm12X2eGq3K+uozs4tfRWa+ubpogr4+8Tg9V/Uhw3Lt+NedG0fHv4XUb8x/VNrWICDv0e2+rfUmLOafde/mObtf5Io5OWWvwldhvd1P+IxOVqM5okVHG33tT3zlkZ/I76yymbDSpIUz4EwBB++Y8hI7zDKdA8fP13FbyNZ+PKBOfg9DCznybjoftValvRnq5OzvtYsATjhV31OXSpu1KrMTeqZRLNrEWjtbulBHtHFJXNY9rLizAokX2FS+czubhsna3/dJVW/E1RpwmZxP1L6v31Iyv7LvxByHDxHXazrrAji3+BqZ6wNKRrnE69u6p+mZHS90amUz6AITjpJsPxoMACKyCwDc/8ON07lfupPP//n0bXN6jheO179E2PPQeOvvQ22j/2tfR0dvNsdC+203EMTzu7OtO/wvopORx+0tpTw0lfB2dlXQqnxfQyYci9X/ICMfYObl+RetNdfyH+tjG/CfZNoEv/fv30dlrX0B7F7+U9qWteviO/B50xPFtvX8bXJZ6OCFlbWi9Dv9hkVhPhuOKvFy/J6UEoysk/E4wd9DTwlF3UDmq6A6Z8wQY8eccSvVJB/UxcvVuJYs/PTkPD7lzP/OgHy7EOvPaLnXeigxtt7Wv84fh1rOZuLY7zFeYMEvzkXsjjK2AMdlpQZnIW6JlzdPLObJm4ajqbh84RKrQUzj6DIU1S1F328lfxKIJL3JETvnF4I/c83cw9QMIJ3ez2e4rfvqEnX6i1j2ZvbbxvCV6lR42zr+hpPDtyT6a/cQOQjhOrMFgLgiAwOoJfOuRw/T84++h859+31oWJQhvexvt3/Y2OvlqHn7KC09O43Y86+2jtyXsus0Ix4TdqgOfZdS4Xl3H76G9js5+WosMvR0pxxUniXJWwe3cr9xN33zwR1ff+EsoYd3+Y3kn28YRjqk26/AdW8an30dzRxxTZa/h+Nr8RzrVGQvFmf4ovPIp3dnVkR63k+x3gmsxFU5Ek3bM5jX6XqFEIgtFjnDysEIefqdmeWUxFhOLThlSD0cc9PkMhJMDj3VUIjXVOdd26+irjYAFH7znjjpHau37osYuyZPziEW/VN5rFo780ICFbHOR9o6fqyOtHj1nx/gOfxOwZWxovzpHRLp9d8/3RW2ATm/bR6ziiJ0ZfhqNfkq63mth1OeCmJ19rjNpjF826iRZqPeLSyVyVTRf/g7zA5tUlBLCUehhDQIgAAK7R+D5J+6l7zx6lM5/+sH1LLe9xBOJexe/gPZe/RI6eu2VSkzuP3QrnX2ohy0qn5fQfsRuEY17194ar9NtV9LJhx5UkSgWrEdvS5SnyuBoZOJ8pOxlcPzemXfRtx87OglnXLv/CPOHrtTDiBttc6uJXifanq9v8Z3zn2b/qxeJOLrH2rb3VcTxStJ+rPNZhk8MyWOd/mNFjuOtfoTD7SRzNKMepqm3TVe8Z0RLC7BwqKpTeLjZM1/1WQh7rREQotjs8eaGsse+e5kSqLUY0h14Zz9r/06eFkicr55YKC4A2F6ZxKdp41KOBBy1XfUDvtSDv/B4UgyyiObPuBjh0kxXC9FyxtGw2JBlv6a+H/rnZLiolKMnZzKzi4ZJeX9R8WhmK+WHGio63vUww7FBWPNDEZ6ISkfZ02v+pqWeGVXaJ+6XwkfaSKL7VhxHHwzwb5ijsLkaCdB8cJAY3urUZ0qbiDhOqbVgKwiAwFoI/ON//hJ96xdfT+c//cCallto/7Zb6Ow85T10LR1loXmxRChZOPp2i2jMXn1ta31suouvDGy5RQuPi+WPbrOMVbP69kOH6ft/+pm1tP+ihazff0x7W+Hot//5T5v2u/aWdPtb4Rhe+4B9mCCdqWWsj97WLGeVPrRZ/zFD3azocoVj6G0soPSwUs25W/yoTrTNO8wvsh8InkiKxiE1wUke72w3EvPMqvbzI42z+oBENO0wWA5Q+kNwE1fa70eKH0arznV08k7ntcAZxbHHZDRDi1Az08q9Vgu3aKBRGLoRMatwYoXyUNFcf2Yidtocs5+j4Hy7GLJ47EqTLKt+WKBmLe0OvTo5GVFtH1A4vISHtzZDtU10NYlJ+Y2eBTaaJmTulZGyofs37FRs9JsQjqNvIhgIAiCwCQLf+5Wfpe+eeid9/9ceGP3ymR/Tf7D2Ln4JffDDcXuf/fAt9GxHXZ5975V09OKX0Gci6Z5960uUOD36Y1fSZxJlrIrVucdupW8/cvUm3GDuMjfiPx/WEUfrA+/VbbZnBP/R9/q+8aw9Xz90iLX9qtp1XfmOz3+0cJTITuhkKuphhphGBYN3gel8R9WTl7DesZ3j+tAmtqrZjAbESX0TZbKVhGhhhim+fkYL7K1KOKpRyvrbn2UsfG1N1sMpZQZQe3jhDSPKUsMyF84fGUyZAITjlFsPtoMACKyMwP84/x365onL6fwvH6fv/9ovYNkQg/O/eh9964NX0H//m79aWVuvIuON+M+Hr6CjP3YFfebD4q9vVTPoZhf/IB196y1NH/7wFWZipB+kPe86uX7666n6zyp8EnmCAAiAwKIEIBwXJYjrQQAEtpbAP37jP9G3P/QTdP7f3UXf/7X7sayZwflfvZe+89DVdP73PzlJH4P/bPY3M3X/maTTw2gQAIGtJgDhuNXNi8qBAAgsSuD7f/4f6Fsn/h96/tTN9P1fvR/Lmhice+zdKtI4VdEofgf/2cxvZlv8R/wIaxAAARAYAwEIxzG0AmwAARAYNYF//u7f0rfPHKXvzN5M3/v4DXT+391D3//V+7CsgMHzp3+avvvQYfVO49SGp6acGP6zvt/KNvpPyq9wHARAAATWTQDCcd3EUR4IgMBkCXz/mSfpu5+6if7+npcQf0wcy/IZfPuX/l86/8XfmKyPtBkO/1m+v4S/wW32nzbfwjkQAAEQWAcBCMd1UEYZIAACIAACIAACIAACIAACIDBhAhCOE248mA4CIAACIAACIDAlAvrzGfJh8SlZDltBAARAAMIRPgACIAACIAACIAACayFgvruY+P5gXxOqsqKqWnzpWx7SgQAIgAATgHCEH4AACIAACIAACIDAOgiYj8Yv9nF6Iz6zjLK5l5xm1ToqjDJAAAS2iQCE4za1JuoCAiAAAiAAAiCwOQJdUcCyoCzLqRgUMVxWdURwQjQuiyjyAYFdIwDhuGstjvqCAAiAAAiAAAishoAShotEApvXFuUyTIVoXAZF5AECu04AwnHXPQD1BwEQAAEQAAEQWAOBkooso8WGqc5hZlVSkbMgRaRxDnq4BARAwCEA4ejAwCYIgAAIgAAIgAAIrIJAWbB4K2gpAcSeBlbljHJ+DzIvqMQ7jT2pIRkIgECKAIRjigyOgwAIgAAIgAAIgMAyCDiT4vSZDXXhIquSZkWuJs/Ji5KgGRcmigxAAAQwqyp8AARAAARAAARAAARWSUAPUe09A+oSXmqsZiwac5ohzLjKhkXeILBzBBBx3LkmR4VBAARAAARAAATWQ0Ampcko6yEI1XDWHum6bNfCcb3DYrtswnkQAIHpE4BwnH4bogYgAAIgAAIgAAJjI2AnpTEzpfYQhBCOY2tE2AMCIOASgHB0aWAbBEAABEAABEAABBYkUJWFnpRGfbORSARh1/uNkm7B4gkRx0UJ4noQAIEYAQjHGBUcAwEQAAEQAAEQAIGhBLwoY/35CyUIeXbTPkuPyGSXWRCOXYRwHgRAYB4CEI7zUMM1IAACIAACIAACIBASEOGYz7zPX/SNJPZNFxYb7kM4hkSwDwIgsAwCEI7LoIg8QAAEQAAEQAAEQCBBoK8g7JsuUYw9DOFoUWADBEBgiQQgHJcIE1mBAAiAAAiAAAiAQEhABCHecQzJYB8EQGBKBCAcp9RasBUEQAAEQAAEQGByBJRw7PN+I6fBO46Ta18YDAK7QgDCcVdaGvUEARAAARAAARDYCAGJOHYV3jddVz4YqtpFCOdBAATmIQDhOA81XAMCIAACIAACIAACPQn0FYR903UVC+HYRQjnQQAE5iEA4TgPNVwDAiAAAiAAAiAAAj0J9BWEfdN1FavyyWdUdSXEeRAAARAYQADCcQAsJAUBEAABEAABEACBoQT6CcKKZvmc7ziWBeVZTnnOi/le5BLelRxaT6QHARDYbgIQjtvdvqgdCIAACIAACIDAhgm0RgDLgjJn4px8Nk+c0IhOIx6LWYlo44bbHMWDwDYSgHDcxlZFnUAABEAABEAABEZCoKKyyCkvEkNHqxnlWaaihRB8I2kymAECIBAlAOEYxYKDIAACIAACIAACIAACIAACIAACQgDCUUhgDQIgAAIgAAIgAAIgAAIgAAIgECUA4RjFgoMgAAIgAAIgAAIgAAIgAAIgAAJCAMJRSGANAiAAAiAAAiAAAiAAAiAAAiAQJQDhGMWCgyAAAiAAAiAAAiAAAiAAAiAAAkIAwlFIYA0CIAACIAACIAACIAACIAACIBAlAOEYxYKDIAACIAACIAACIAACIAACIAACQgDCUUhgDQIgAAIgAAIgAAIgAAIgAAIgECUA4RjFgoMgAAIgAAIgAAIgAAIgAAIgAAJCAMJRSGANAiAAAiAAAiAAAiAAAiAAAiAQJQDhGMWCgyAAAiAAAiAAAiAAAiAAAiAAAkIAwlFIYA0CIAACIAACIAACIAACIAACIBAlAOEYxYKDIAACIAACIAACIAACIAACIAACQgDCUUhgDQIgAAIgAAIgAAIgAAIgAAIgECUA4RjFgoMgAAIgAAIgAAIgAAIgAAIgAAJCAMJRSGANAiAAAiAAAiAAAiAAAiAAAiAQJQDhGMWCgyAAAiAAAiAAAiAAAiAAAiAAAkIAwlFIYA0CIAACIAACIAACIAACIAACIBAlAOEYxYKDIAACIAACIAACIAACIAACIAACQgDCUUhgDQIgAAIgAAIgAAIgAAIgAAIgECUA4RjFgoMgAAIgAAIgAAIgAAIgAAIgAAJCAMJRSGANAiAAAiAAAiAAAiAAAiAAAiAQJQDhGMWCgyAAAiAAAiAAAiAAAiAAAiAAAkIAwlFIYA0CIAACIAACIAACIAACIAACIBAlAOEYxYKDIAACIAACIAACIAACIAACIAACQgDCUUhgDQIgAAIgAAIgAAIgAAIgAAIgECUA4RjFgoMgAAIgAAIgAAIgAAIgAAIgAAJCAMJRSGANAiAAAiAAAiAAAiAAAiDw/7d3f7+SZIV9wPtPgX3ZffXbbC/rPLEsjiXzGydSFPkCLcyvkERyYtgfAywEXy9wF+/sDvsDQwhgg2EGQxo7wXlI5DxEeZpRosj3wVIe8uIfzO4yd8DYnOicququqq7qrr63+1Z19+dKpdtdXXXqnM+plurbp34QINAoIDg2sphJgAABAgQIECBAgAABAoWA4FhI+E+AAAECBAgQIECAAAECjQKCYyOLmQQIECBAgAABAgQIECBQCAiOhYT/BAgQIECAAAECBAgQINAoIDg2sphJgAABAgQIECBAgAABAoWA4FhI+E+AAAECBAgQIECAAAECjQKCYyOLmQQIECBwHoG//6u/DGf/9cvhlRf+eZr+5vFfCqaLGxSed3/wO+Hn/+//nKdrrEOAAAECBC4kIDheiM/KBAgQIBAFfvHzn4WzH34+/Pj40fDqS+8PP/nOZ9J078++FkwXNyg8X/vqR8Odz/9q+Mm3fjv84t6rdj4CBAgQIHBpAoLjpVHbEAECBPZTII4y3rn27vDqVz8a7v3oa6ZLMHjt6x8LP376V8Lf/cWf7+dOpVUECBAgMDgBwXFwXaJCBAgQ2B2BeNrkj3/3zeHuzc+Fez/696ZLNDibXg93nnlH+Nn/+tHu7DBqSoAAAQI7KyA47mzXqTgBAgT6FYinp9555q3h7vefERgvMTCWA3oKjye/Fv7htb/ud2ewdQIECBDYewHBce+7WAMJECCwHYF4TeOrX/kX4d5//qqpR4PXvvlYeO0b/2o7naxUAgQIECCQCwiOdgUCBAgQWFsgnqJ653O/KjD2GBjLgf2Va/80/Ox//5e1+9EKBAgQIECgq4Dg2FXKcgQIECAwEzj7s+fDqy9/INz7T18xDcDgta/9VvjJtz826x8vCBAgQIDApgUEx02LKo8AAQIHIHDnuV8Pd//os0LjAEJjDO9n3/9i+PHxIwew52kiAQIECPQlIDj2JW+7BAgQ2GGBvz1+JNz942fC2Z/+vmkgBn/z+C/t8B6l6gQIECAwdAHBceg9pH4ECBAYoEAMKWd/+mXTgAwExwF+UVSJAAECeyQgOO5RZ2oKAQIELktAcBxeaBYcL2vvtx0CBAgcpoDgeJj9rtUECBC4kEAKjn/y5XBmGoyB4HihXdrKBAgQILBCQHBcAeRjAgQIEFgUyILjy+HsT0xDMRAcF/dTcwgQIEBgcwKC4+YslUSAAIGDEUjB8YcvhzPTYAwEx4P5+mkoAQIEehEQHHtht1ECBAjstoDgOLzQLDju9ndK7QkQIDB0AcFx6D2kfgQIEBigQBYcXwpnPzQNxUBwHOAXRZUIECCwRwKC4x51pqYQIEDgsgRScJy+GM72aLo9uS+MHrgvHH3i0+Fs+ulw++WLt+/mm0fhygP3heMNlLXKWnC8rL3fdggQIHCYAoLjYfa7VhMgQOBCAhsNji+/O1wZ3ReuPPDucLvHIJqC4+iXw83piyF7ffHAF4Pj6M0fuZSALTheaJe2MgECBAisEBAcVwD5mAABAgQWBVJw/I8vhLONTB8JR6NROPpE1/KeCrc/8e5w/Oh9YTQahSuPfmQj9chGHN8dbqc2PRWOHxiF0ejhcPOl9nrdfumpsGy6+egojB79yNJl0vobcBQcF/dTcwgQIEBgcwKC4+YslUSAAIGDEbiM4Hh78nA4erQ0PXBfuDKKYa6Y4ihl9vnxJ56qhcenws1PrBcoq8ExhsWPhKMHHg43W0NdES6L+pz3/7JttIfWemgXHA/m66ehBAgQ6EVAcOyF3UYJECCw2wIpOP7gS+FsI9OHsxHHq9Xybr8vjijeF64U4fF97wo383nHL1aXrdfj9tWHs9HI932qVMdPhdsvLplS2Q+Hm03LnLOd2Yjjh0t1WF7vejvWeS847vZ3Su0JECAwdAHBceg9pH4ECBAYoMBFg2M1wBXBsRTqfvClkILjA+8Kt8uhLQXC+8Kq4BgDVwpto/my2ftzjgo+er7wJzgOcOdVJQIECBA4l4DgeC42KxEgQOCwBbLgeD2c/eA80yfz6wfbQlwMe9dLwbG0jRfflW6kEz9fve0PpZHMUQqf17Mgmb9uXDeF0ofDzTXbdPvFT4a2KQXHB94Vbl79UON0/L4Phdtrbq+x7j+4How4HvZ3UusJECCwbQHBcdvCyidAgMAeCsSQcvf71zc0ZQHv6Gq1vFvx1NEH3hVulbfzQh4cX6gu21qX/JTVWPaNeKOaenkLZT8cbpTndXidyp1dd9kWhlvmL6tPh22X2y047uEXTZMIECAwIAHBcUCdoSoECBDYFYEsOD4f7n5/E1MRHKtlZcHxneFWeRsvvDMbcXyhuuyyety6+olUzyw4ZuXdeuEToT7dXSj7E+HW1Q+FW2tsq16PtM1HP7Qhp+VtFhx35dujnunFSmkAACAASURBVAQIENhNAcFxN/tNrQkQINCrQAqOf/xcuLuR6YP5zXGq5d16bxxxfGe48aWr4VYxXY3BcRSOrpbmFZ+tqMuNN8URx3eGW1/KypjfnTWOBt4Xjr8U6xH/F/XI6jV60wfDrXrZxTZX/E/bfNMHN+RU1Kv5v+DY61fCxgkQILD3AoLj3nexBhIgQGDzAtsMjjEkxkCaguMap4AeXW0OVEW4nQXHegicvb+arr2clZMCZjlIzstft27VkNpy2uoFA6bguPn9XIkECBAgMBcQHOcWXhEgQIBAR4EUHL93LdzdyPSBbMTxvR8IRw/EUcF3hFvfuxZuvff1s9fz7WTLXnnv1Y7bvhpuXc/qmQXHvOx83qzc61l5cZmi7Obtd2zzk29IjwM5evJauJtevyHcaLLKtzurR9MyHecJjh13XosRIECAwLkEBMdzsVmJAAEChy2wyeB468k3pNNP06jcA28IN/Iw1RzcslHB0Zs+0C04Xn9HuDJ6fTi+fi3MgmOaVx/1y4JdeZvlELlWsCvKL+qYv08hshwC83YXQXWtbZTLyV8Ljof9ndR6AgQIbFtAcNy2sPIJECCwhwJZcHw23P3e+aZb1z8Qjt/0+nlgjNctPlktax7iqvNnAbDDtlMZo4fCje89WwuO2bxU/xTs8vdPPhRGafk4shkDZ3XbK9t7PRsRzUZNi3XLYTef9+RDqe1X3vSOcOPJONpZLHv+/4LjHn7RNIkAAQIDEhAcB9QZqkKAAIFdEUjB8eaz4e65pqvh+P5sxO/K/Q+FG8/np6o+US3v1nteH0b3vyPcqm/jiTzc1ecvvM+388gHUj1vPDIKo/j6+TgK+VC4USxfeZ/X5ZGWbRfrNP3P2xFHTq+852rVJtV5FI6euBpSu5qWaSpzjXmC4658e9STAAECuykgOO5mv6k1AQIEehXIguPvhbs3zzk9/5vhxhNP5uv/ZnaN4xPVsrLg+PZwq76N59+enX76fHX5hbqksPb6cJyWezILq4/8Zrib1o/BMV+/8j5fLgW7on4rtnPz98KtJ7IRxNH9D4Wj+2NwrK87L3c0en04mrV9ddkL7SrqXfsvOPb6lbBxAgQI7L2A4Lj3XayBBAgQ2LxACo43vhjubmR6fxYcH6+Wd+sojvq9PdwqtvHcE/nrJ1IIvHL0xNLtpxHG2frZNtI6z8Xg+VC4EcuL0+P5+3w7abvxNNXnqvVpbusT4UYcnYx3f03bWla3rA7pVNhOZXfZ/nwZwXHz+7kSCRAgQGAuIDjOLbwiQIAAgY4CMaSc3XhmQ1MRHKvl3U7B8W3hdtzOc2/LRhmfy5ZJn43G4WZbHdLyo3Dl6PGsjvn7o8eLsuo3x4lBsfrZbN2mbTz3eLj5yPwazfmyj+ehNt9ufd28HnHU8fjxlmXq63R8Lzh23HktRoAAAQLnEhAcz8VmJQIECBy2QAqO330mnG1kyoPjY9XyZsHxWgyNcUTvbeH2bHvFCOLjWR2uPV76LIa6GAzH4Wa+/Cxoztavbiu141o+Inj/28LNGFor64/D8WP5tr77TLj92DgfZRyH42vlskrBsdjWtfeH4/tfP18ubqe4xvORt4WblfXLZa33WnA87O+k1hMgQGDbAoLjtoWVT4AAgT0UyILjSTj77iamSXaq6mPVsm4fvS4LZyk0vjXc/u5JuH0Ug1q2XPb567L3KciNw838s7PvPhaOjyZ5/R7Lr28s3le3k9pwbZKHuRg24+dZnUaPZOukIHp/VoeizbevPZbqVLzP/mfbunL0WIh1uHk0zu8cW5RbbPuxcPORcvtiMI3rFJ+v/19w3MMvmiYRIEBgQAKC44A6Q1UIECCwKwJZcPxCOPvuJqYiOJbL+ngW9mJofGQSbqftFPMeDDcr718XrsQRvBTsymVkr+cBc/Gzs+9+PNw8ejAPdw+Gm9fmyxTB9coj2edXjj7eob1ZHa/c/2BWp3iTnVn952XP3K5NwvEjr0vLzOad01Rw3JVvj3oSIEBgNwUEx93sN7UmQIBArwIpOH7nC+HsAtPNN8bA97o8tL0uHD9bLS99/sZJuF3ZRj4SGENiml+EyVEYvXGyUJ/bjz2YjVo2fFbU/fZvxHo8GG7Wth8/v/nG4lrIxfoV61f+P/vWvD2jcOWNb20ss7J8pW3V9q+7nODY61fCxgkQILD3AoLj3nexBhIgQGDzAllw/Hw4+84FpmffkkJWDI9Hj32se1nPviUc/UZt+Wdr74t6Pfu+cBRDYfF+7f8fCzdjsKxvr7Wcj4XjNz4YjtdpT2tZ69kKjpvfz5VIgAABAnMBwXFu4RUBAgQIdBTIguPnwtl3TEMxEBw77rwWI0CAAIFzCQiO52KzEgECBA5bIIaUe3/0tGlABoLjYX8ntZ4AAQLbFhActy2sfAIECOyhQAqO33463DMNxkBw3MMvmiYRIEBgQAKC44A6Q1UIECCwKwJZcPzdcO/bpqEYCI678u1RTwIECOymgOC4m/2m1gQIEOhVIAuOx+Het01DMRAce/1K2DgBAgT2XkBw3Psu1kACBAhsXiAFx28dh3umwRgIjpvfz5VIgAABAnMBwXFu4RUBAgQIdBTIguPvhHvfMg3FQHDsuPNajAABAgTOJSA4novNSgQIEDhsgSw4fjbc+5ZpKAaC42F/J7WeAAEC2xYQHLctrHwCBAjsocCPP/OPwtnXr4Z7f/hZ00AMBMc9/KJpEgECBAYkIDgOqDNUhQABArsicOeZt4a7v/9vwr0/+HemIRh8/ZPhbz/10K7sPupJgAABAjsoIDjuYKepMgECBPoW+Mm3fju8dn0S7v3BZ0wDMPjJyx8Nr1z/Z33vFrZPgAABAnssIDjucedqGgECBLYl8Hd/8efhzhfeEu79wadNAzB49Yu/Hu79j29vq7uVS4AAAQIEguBoJyBAgACBcwm88vJ7wt0XPxx++s1Pm3o0OPvqvw13Tn4t/OLnPztXP1qJAAECBAh0ERAcuyhZhgABAgQWBP7htb8Od47fFO59/cnw028+ZerJ4M7T/zj8/P/eWugfMwgQIECAwCYFBMdNaiqLAAECBybw0/95I7x68o5w7xufFBx7CI6vfvGfhLPp0we212kuAQIECPQhIDj2oW6bBAgQ2COBe//tK+HO078Szl7+l+Gn3/iU6RIMzr7yW5m50LhH3yRNIUCAwLAFBMdh94/aESBAYCcE/v6v/jK8cu1d4bVn3h3uvvDB8NM4AmnauMHdL//rEEcZ4zWNTk/dia+GShIgQGBvBATHvelKDSFAgED/AvHOnq+89J4QH0Zv2rzBK8+8Jdz77//BjXD639XVgAABAgcnIDgeXJdrMAECBAgQIECAAAECBNYTEBzX87I0AQIECBAgQIAAAQIEDk5AcDy4LtdgAgQIECBAgAABAgQIrCcgOK7nZWkCBAgQIECAAAECBAgcnIDgeHBdrsEECBAgQIAAAQIECBBYT0BwXM/L0gQIECBAgAABAgQIEDg4AcHx4LpcgwkQIECAAAECBAgQILCegOC4npelCRAgQIAAAQIECBAgcHACguPBdbkGEyBAgAABAgQIECBAYD0BwXE9L0sTIECAAAECBAgQIEDg4AQEx4Prcg0mQIAAAQIECBAgQIDAegKC43peliZAgAABAgQIECBAgMDBCQiOB9flGkyAAAECBAgQIECAAIH1BATH9bwsTYAAAQIECBAgQIAAgYMTEBwPrss1mAABAgQIECBAgAABAusJCI7reVmaAAECBAgQIECAAAECBycgOB5cl2swAQIECBAgQIAAAQIE1hMQHNfzsjQBAgQIECBAgAABAgQOTkBwPLgu12ACBAgQIECAAAECBAisJyA4rudlaQIECBAgQIAAAQIECBycgOB4cF2uwQQIECBAgAABAgQIEFhPQHBcz8vSBAgQIECAAAECBAgQODgBwfHgulyDCRAgQIAAAQIECBAgsJ6A4Liel6UJECBAgAABAgQIECBwcAKC48F1uQYTIECAAAECBAgQIEBgPQHBcT0vSxMgQIAAAQIECBAgQODgBATHg+tyDSZAgAABAgQIECBAgMB6AoLjel6WJkCAAAECBAgQIECAwMEJCI4H1+UaTIAAAQIECBAgQIAAgfUEBMf1vCxNgAABAgQIECBAgACBgxMQHA+uyzWYAAECBAgQIECAAAEC6wkIjut5WZoAAQIECBAgQIAAAQIHJyA4HlyXazABAgQIECBAgAABAgTWExAc1/OyNAECBAgQIECAAAECBA5OQHA8uC7XYAIECBAgQIAAAQIECKwnIDiu52VpAgQIECBAgAABAgQIHJyA4HhwXa7BBAgQIECAAAECBAgQWE9AcFzPy9IECBAgQIAAAQIECBA4OAHB8eC6XIMJECBAgAABAgQIECCwnoDguJ6XpQkQIECAAAECBAgQIHBwAoLjwXW5BhMgQIAAAQIECBAgQGA9AcFxPS9LEyBAgAABAgQIECBA4OAEBMeD63INJkCAAAECBAgQIECAwHoCguN6XpYmQIAAAQIECBAgQIDAwQkIjgfX5RpMgAABAgQIECBAgACB9QQEx/W8LE2AAAECBAgQIECAAIGDExAcD67LNZgAAQIECBAgQIAAAQLrCQiO63lZmgABAgQIECBAgAABAgcnIDgeXJdrMAECBLYn8Pd/9Zfh7L9+Obzywj9P0988/kvBdHGDwvPuD34n/Pz//Z/tdaCSCRAgQIBAi4Dg2AJjNgECBAh0F/jFz38Wzn74+fDj40fDqy+9P/zkO59J070/+1owXdyg8Hztqx8Ndz7/q+En3/rt8It7r3bvIEsSIECAAIELCgiOFwS0OgECBA5dII4y3rn27vDqVz8a7v3oa6ZLMHjt6x8LP376V8Lf/cWfH/rup/0ECBAgcEkCguMlQdsMAQIE9lEgnjb54999c7h783Ph3o/+vekSDc6m18OdZ94Rfva/frSPu5Y2ESBAgMDABATHgXWI6hAgQGBXBOLpqXeeeWu4+/1nBMZLDIzlgJ7C48mvhX947a93ZbdRTwIECBDYUQHBcUc7TrUJECDQt0C8pvHVr/yLcO8/f9XUo8Fr33wsvPaNf9X37mD7BAgQILDnAoLjnnew5hEgQGAbAvEU1Tuf+1WBscfAWA7sr1z7p+Fn//u/bKOrlUmAAAECBJKA4GhHIECAAIG1Bc7+7Pnw6ssfCPf+01dMAzB47Wu/FX7y7Y+t3Y9WIECAAAECXQUEx65SliNAgACBmcCd53493P2jzwqNAwiNMbyfff+L4cfHj8z6xwsCBAgQILBpAcFx06LKI0CAwAEI/O3xI+HuHz8Tzv70900DMfibx3/pAPY8TSRAgACBvgQEx77kbZcAAQI7LBBDytmfftk0IAPBcYe/UKpOgACBHRAQHHegk1SRAAECQxMQHIcXmgXHoX1L1IcAAQL7JSA47ld/ag0BAgQuRSAFxz/5cjgzDcZAcLyUXd9GCBAgcLACguPBdr2GEyBA4PwCWXB8OZz9iWkoBoLj+fdnaxIgQIDAagHBcbWRJQgQIECgJpCC4w9fDmemwRgIjrWd1FsCBAgQ2KiA4LhRToURIEDgMAQEx+GFZsHxML57WkmAAIG+BATHvuRtlwABAjsskAXHl8LZD01DMRAcd/gLpeoECBDYAQHBcQc6SRUJECAwNIEUHKcvhrNBTZ8Oxw+MwpUHfjncfPkCdfvEL4fR6L5wZfLphvZ9Otx+uWXq2UJwHNq3RH0IECCwXwKC4371p9YQIEDgUgSGHBxHb/5IQ+BbI0i+/O5wZXRfOG4In7cn94XRaNQ4NQfNNbZ7weApOF7Krm8jBAgQOFgBwfFgu17DCRAgcH6BFBz/4wvhbFDTU9mI4+Spi9XrpTw4vrTYviw4PhxuVtq9oe1Wylzc9iprwfH8+7M1CRAgQGC1gOC42sgSBAgQIFAT6Cc4PhVuv7Rs+kg4Go3ClclHViz3VLi9LKQJjrXe9pYAAQIECIQgONoLCBAgQGBtgRQcf/ClcHaZ04vvCldaThNtO320ef594fjFJXVP22le5vb77gujB94Vblfa/alspPN9n7pcj0odvhSMOK69G1uBAAECBNYQEBzXwLIoAQIECGQCvQTHWlBaDK0fTiOOR1eXhMKWMm6/+Kkwm67GgHpfOL5ampevd/PRURg9+uFaQBQcfS8IECBAYP8FBMf972MtJECAwMYFsuB4PZz9oL/p9oufDJUpD3xHV2vzZ8u11zUFwtbRzIfDzdTOD2Wnwr7vk7V2fzIfcazPb9/eNtyMOG58N1cgAQIECJQEBMcShpcECBAg0E0ghpS737/e45SFuOZTUZvuenpfOH6hY31fyEccK8tn4XA0ejjcWGh38dl94ejRh/PpvnDlfZ+8VB/Bsdu+aykCBAgQOJ+A4Hg+N2sRIEDgoAWy4Ph8uPv9vqZP5KN8n1hdhxfemZ16+kLHui4sX4TUGD5bynjhneHogWpgPbrasuyWzATHg/5KajwBAgS2LiA4bp3YBggQILB/Aik4/vFz4W5v09UsOL736uo6fCkPjl/qWN+m5b/0wXDjasf1ezIRHPfve6ZFBAgQGJKA4Dik3lAXAgQI7IjAcILjB8OtL11dPl3dQHD84xXbKOrQU2iMAV5w3JEvj2oSIEBgRwUExx3tONUmQIBAnwIpOH7vWrjb25SNOHa/xvH14fh6x/pef0e4Mnp9OHrvO8LRA9l6t977+tBlW0dPdtzGFtwExz6/EbZNgACB/RcQHPe/j7WQAAECGxcYSnC8Ek9VXRXC8iDYNTjeevINs+dFXnnTO8KtWfkfyO6q2rTNJ98QRqM1wumszM0FTcFx47u5AgkQIECgJCA4ljC8JECAAIFuAllwfDbc/V5fU3GN4wfCretXl09PZiOIx9eX1fVquPHeh8KV2Q1uYghcXP7Gm0Zh9EAMk9XP2uZfpo/g2G3ftRQBAgQInE9AcDyfm7UIECBw0AIpON58Ntztbboaju+v3sV0+amkrw/Hz7fVNxtJTOvf/1C48UQeNJuWfz5+NgpX3nN13vZ83tETbeVfznzB8aC/khpPgACBrQsIjlsntgECBAjsn0AWHH8v3L3Z1/RkCo5X3vPk6jo8//Z0zeLx80vq+sTbw9ETeVkrlr/xSAysD4Ubedvr7/syERz373umRQQIEBiSgOA4pN5QFwIECOyIQAqON74Y7vY2PZEFx6P3h1vPPbF8ejwPjs91rO9zq5Z/f7rWcXT/28ONo+ymOUePdyx7i16C4458eVSTAAECOyogOO5ox6k2AQIE+hSIIeXsxjM9To+vf6rqcx3r+9zbshHKZcs/Pp7fZfWR9/foMG+T4NjnN8K2CRAgsP8CguP+97EWEiBAYOMCKTh+95lw1tuUBccrR4+vrsO1PAhe61jfDsvfzkcas+six+Fm17K36CU4bnw3VyABAgQIlAQExxKGlwQIECDQTSALjifh7Lt9TY/lp6o+troO194aroxeF46vdazrsuWvTcJRflOeK49Mwu1rb52/vz8GyI7b2IKb4Nht37UUAQIECJxPQHA8n5u1CBAgcNACWXD8Qjj77iVN1z4eblemSR4cY3irf1Z7/1geHB+rzb/WUvdZcMw/v/bxcPPowXCluIvr/Q+G48c+Xmr7x8Ptxx6cPftxNHpduPLIg+H46OPh9mX5fPcLQXA86K+kxhMgQGDrAoLj1oltgAABAvsnkILjd74Qzi5puvnGdR690XHZN06q9X/sreHojQ/mI4gPhpupbR8vXUv5unD0G5Nwu7XNeYDMA+bRY5fnE/tBcNy/75kWESBAYEgCguOQekNdCBAgsCMCWXD8fDj7zh5Nz74lGzW8/3Xh6LGPzdv27PvCcfl9lzY/+7Fwu8tyG1xGcNyRL49qEiBAYEcFBMcd7TjVJkCAQJ8CWXD8XDj7jmkoBoJjn98I2yZAgMD+CwiO+9/HWkiAAIGNC8SQcu+PnjYNyEBw3PhurkACBAgQKAkIjiUMLwkQIECgm0AKjt9+OtwzDcZAcOy271qKAAECBM4nIDiez81aBAgQOGiBLDj+brj3bdNQDATHg/5KajwBAgS2LiA4bp3YBggQILB/AllwPA73vm0aioHguH/fMy0iQIDAkAQExyH1hroQIEBgRwRScPzWcbhnGoyB4LgjXx7VJECAwI4KCI472nGqTYAAgT4FsuD4O+Het0xDMRAc+/xG2DYBAgT2X0Bw3P8+1kICBAhsXCALjp8N975lGoqB4Ljx3VyBBAgQIFASEBxLGF4SIECAQDeBH3/mH4Wzr18N9/7ws6aBGAiO3fZdSxEgQIDA+QQEx/O5WYsAAQIHLXDnmbeGu1/5N+HeH/470xAMvvHJ8Lefeuig90mNJ0CAAIHtCgiO2/VVOgECBPZS4Cff+u3w2vVJuPcHnzENwOAnL380vHL9n+3lvqZRBAgQIDAMAcFxGP2gFgQIENgpgb/7iz8Pd77wlnDvDz5tGoDBq1/89XDvf3x7p/YhlSVAgACB3RIQHHerv9SWAAECgxF45eX3hLsvfjj89JufNvVocPbVfxvunPxa+MXPfzaYfUNFCBAgQGD/BATH/etTLSJAgMClCPzDa38d7hy/Kdz7+pPhp998ytSTwZ2n/3H4+f+9dSl9biMECBAgcLgCguPh9r2WEyBA4MICP/2fN8KrJ+8I977xScGxh+D46hf/STibPn3hflQAAQIECBBYJSA4rhLyOQECBAgsFbj3374S7jz9K+Hs5X8ZfvqNT5kuweDsK7+VmQuNS/dNHxIgQIDA5gQEx81ZKokAAQIHK/D3f/WX4ZVr7wqvPfPucPeFD4afxhFI08YN7n75X4c4yhivaXR66sF+3TScAAECvQgIjr2w2ygBAgT2UyDe2fOVl94T4sPoTZs3eOWZt4R7//0/uBHOfn59tIoAAQKDFhAcB909KkeAAAECBAgQIECAAIH+BQTH/vtADQgQIECAAAECBAgQIDBoAcFx0N2jcgQIECBAgAABAgQIEOhfQHDsvw/UgAABAgQIECBAgAABAoMWEBwH3T0qR4AAAQIECBAgQIAAgf4FBMf++0ANCBAgQIAAAQIECBAgMGgBwXHQ3aNyBAgQIECAAAECBAgQ6F9AcOy/D9SAAAECBAgQIECAAAECgxYQHAfdPSpHgAABAgQIECBAgACB/gUEx/77QA0IECBAgAABAgQIECAwaAHBcdDdo3IECBAgQIAAAQIECBDoX0Bw7L8P1IAAAQIECBAgQIAAAQKDFhAcB909KkeAAAECBAgQIECAAIH+BQTH/vtADQgQIECAAAECBAgQIDBoAcFx0N2jcgQIECBAgAABAgQIEOhfQHDsvw/UgAABAgQIECBAgAABAoMWEBwH3T0qR4AAAQIECBAgQIAAgf4FBMf++0ANCBAgQIAAAQIECBAgMGgBwXHQ3aNyBAgQIECAAAECBAgQ6F9AcOy/D9SAAAECBAgQIECAAAECgxYQHAfdPSpHgAABAgQIECBAgACB/gUEx/77QA0IECBAgAABAgQIECAwaAHBcdDdo3IECBAgQIAAAQIECBDoX0Bw7L8P1IAAAQIECBAgQIAAAQKDFhAcB909KkeAAAECBAgQIECAAIH+BQTH/vtADQgQIECAAAECBAgQIDBoAcFx0N2jcgQIECBAgAABAgQIEOhfQHDsvw/UgAABAgQIECBAgAABAoMWEBwH3T0qR4AAAQIECBAgQIAAgf4FBMf++0ANCBAgQIAAAQIECBAgMGgBwXHQ3aNyBAgQIECAAAECBAgQ6F9AcOy/D9SAAAECBAgQIECAAAECgxYQHAfdPSpHgAABAgQIECBAgACB/gUEx/77QA0IECBAgAABAgQIECAwaAHBcdDdo3IECBAgQIAAAQIECBDoX0Bw7L8P1IAAAQIECBAgQIAAAQKDFhAcB909KkeAAAECBAgQIECAAIH+BQTH/vtADQgQIECAAAECBAgQIDBoAcFx0N2jcgQIECBAgAABAgQIEOhfQHDsvw/UgAABAgQIECBAgAABAoMWEBwH3T0qR4AAAQIECBAgQIAAgf4FBMf++0ANCBAgQIAAAQIECBAgMGgBwXHQ3aNyBAgQIECAAAECBAgQ6F9AcOy/D9SAAAECBAgQIECAAAECgxYQHAfdPSpHgAABAgQIECBAgACB/gUEx/77QA0IECBAgAABAgQIECAwaAHBcdDdo3IECBAgQIAAAQIECBDoX0Bw7L8P1IAAAQIECBAgQIAAAQKDFhAcB909KkeAAAECBAgQIECAAIH+BQTH/vtADQgQIECAAAECBAgQIDBoAcFx0N2jcgQIECBAgAABAgQIEOhfQHDsvw/UgAABAgQIECBAgAABAoMWEBwH3T0qR4AAAQIECBAgQIAAgf4FBMf++0ANCBAgQIAAAQIECBAgMGgBwXHQ3aNyBAgQIECAAAECBAgQ6F9AcOy/D9SAAAECBAgQIECAAAECgxYQHAfdPSpHgAABAgQIECBAgACB/gUEx/77QA0IECBAgAABAgQIECAwaAHBcdDdo3IECBAgQIAAAQIECBDoX0Bw7L8P1IAAAQIECBAgQIAAAQKDFhAcB909KkeAAAECBAgQIECAAIH+BQTH/vtADQgQIECAAAECBAgQIDBoAcFx0N2jcgQIECBAgAABAgQIEOhfQHDsvw/UgAABAgQIECBAgAABAoMWEBwH3T0qR4AAAQIECBAgQIAAgf4FBMf++0ANCBAgQIAAAQIECBAgMGgBwXHQ3aNyBAgQIECAAAECBAgQ6F9AcOy/D9SAAAECBAgQIECAAAECgxYQHAfdPSpHgAABAgQIECBAgACB/gUEx/77QA0IECBAgAABAgQIECAwaAHBcdDdo3IECBAgQIAAAQIECBDoX0Bw7L8P1IAAAQIECBAgQIAAAQKDFhAcB909KkeAQEGKxwAAIABJREFUAAECBAgQIECAAIH+BQTH/vtADQgQIECAAAECBAgQIDBoAcFx0N2jcgQIECBAgAABAgQIEOhfQHDsvw/UgAABAgQIECBAgAABAoMWEBwH3T0qR4AAAQIECBAgQIAAgf4FBMf++0ANCBAgQIAAAQIECBAgMGgBwXHQ3aNyBAgQIECAAAECBAgQ6F9AcOy/D9SAAAECBAgQIECAAAECgxYQHAfdPSpHgAABAgQIECBAgACB/gUEx/77QA0IECBAgAABAgQIECAwaAHBcdDdo3IECBAgQIAAAQIECBDoX0Bw7L8P1IAAAQIECBAgQIAAAQKDFhAcB909KkeAAAECBAgQIECAAIH+BQTH/vtADQgQIECAAAECBAgQIDBoAcFx0N2jcgQIECBAgAABAgQIEOhfQHDsvw/UgAABAgQIECBAgAABAoMWEBwH3T0qR4AAAQIECBAgQIAAgf4FBMf++0ANCBAgQIAAAQIECBAgMGgBwXHQ3aNyBAgQIECAAAECBAgQ6F9AcOy/D9SAAAECBAgQIECAAAECgxYQHAfdPSpHgAABAgQIECBAgACB/gUEx/77QA0IECBAgAABAgQIECAwaAHBcdDdo3IECBAgQIAAAQIECBDoX0Bw7L8P1IAAAQIECBAgQIAAAQKDFhAcB909KkeAAAECBAgQIECAAIH+BQTH/vtADQgQIECAAAECBAgQIDBoAcFx0N2jcgQIECBAgAABAgQIEOhfQHDsvw/UgAABAgQIECBAgAABAoMWEBwH3T0qR4AAAQIECBAgQIAAgf4FBMf++0ANCBAgQIAAAQIECBAgMGgBwXHQ3aNyBAgQIECAAAECBAgQ6F9AcOy/D9SAAAECBAgQIECAAAECgxYQHAfdPSpHgAABAgQIECBAgACB/gUEx/77QA0IECBAgAABAgQIECAwaAHBcdDdo3IECBAgQIAAAQIECBDoX0Bw7L8P1IAAAQIECBAgQIAAAQKDFhAcB909KkeAAAECBAgQIECAAIH+BQTH/vtADQgQIECAAAECBAgQIDBoAcFx0N2jcgQIECBAgAABAgQIEOhfQHDsvw/UgAABAgQIECBAgAABAoMWEBwH3T0qR4AAAQIECBAgQIAAgf4FBMf++0ANCBAgQIAAAQIECBAgMGgBwXHQ3aNyBAgQIECAAAECBAgQ6F9AcOy/D9SAAAECBAgQIECAAAECgxYQHAfdPSpHgAABAgQIECBAgACB/gUEx/77QA0IECBAgAABAgQIECAwaAHBcdDdo3IECBAgQIAAAQIECBDoX0Bw7L8P1IAAAQIECBAgQIAAAQKDFhAcB909KkeAAAECBAgQIECAAIH+BQTH/vtADQgQIECAAAECBAgQIDBoAcFx0N2jcgQIECBAgAABAgQIEOhfQHDsvw/UgAABAgQIECBAgAABAoMWEBwH3T0qR4AAAQIECBAgQIAAgf4FBMf++0ANCBAgQIAAAQIECBAgMGgBwXHQ3aNyBAgQIECAAAECBAgQ6F9AcOy/D9SAAAECBAgQIECAAAECgxYQHAfdPSpHgAABAgQIECBAgACB/gUEx/77QA0IECBAgAABAgQIECAwaAHBcdDdo3IECBAgQIAAAQIECBDoX0Bw7L8P1IAAAQIECBAgQIAAAQKDFhAcB909KkeAAAECBAgQIECAAIH+BQTH/vtADQgQIECAAAECBAgQIDBogUsPjtPJOExOpuF0YyzTMBlPwsl0cyWG6SSMx5OwySIbm5tvZ6N1jxuaTsJoNA7jkxaTuN3JZIP9MA2TuL3JycXNTk9W9+fpSeqfjbs1dpKZBAgQIECAAAECBAhcbnCMB/yjURiNTzYXHFPQGIXRaBTGk80E0ukkK28yXWMHOZ2uGZpOw8k4bmcS1tlMpxql4Lik3PT5KKzVvmUbzvt1I+XldWsNvbEes/q3BONldfUZAQIECBAgQIAAAQJrC1w8OJ5Ow+np6fIpr1YWyMbhpGX5tWs/W+E0xJHMGB5jKL1YEIujZ6Mw6pSCTsP0JI6QZUEzjvK1DfLNqlq8SOFnHCbTFXbJqlip4/9U9qrgWNQ1jtiO2kcnu2wyb0vnti8p8/Qk9uOSuqfcuOEfH5bUx0cECBAgQIAAAQIECIRw4eCYHegXwanpfx5QitHGGMoap2VhoUu4iiFuHEaTk+Uh9nT5KFXRniw3Vrc7nU7D9GQSJpNxNnI6a0d2muZJ/HxF+WmnW2lRNVo6+ta0F68VHOMAXra95qxcNWj6kSCtn07tXb1sXL/9Lx+Fba5Ivto6wb59S9v8pDH8pj7Z4Chv0YBNjvYWZfpPgAABAgQIECBAoCZw4eBYLS87qF8MOu2nZVaDWrW02bs1g1ZzMM3D2NJQktezOJU2P9ivlzceZ6ObsZ3LYtCs/pUXefBJ22hf/zTfdjz9dvlfNtpaGe1bMziG0N4/YZP2MWgXto2NymyWNnlbAayxPuebKTiez81aBAgQIECAAAECwxXYbHBMB/XFKZDzRrePaHUcPdrIqEoWjhZD7byeiyH2NKRRxml+Ou5s0Q4BZ7Zs6cVp3t50KmYMfM1BqntojGWXy8y3tXZwDKEIiMt8Si2Zv6z0eR5Alya/+aqzV8Wpyyfxpj7xpkSLI5fFsl1GN4tl+/rfGBy3VZmNfDe2VTnlEiBAgAABAgQI7IvARoNjOmCujSgV1x6mG9fUAsFJCk71oNBAu5GD41XBsQhgi8F3sUbrB8cYBtONgcrXQRajeTOz/HTbeKOfyhDiYg0qc/JRuNk6nYLj4qnBy08jrWwxf5OblYPiefoqr399ZLd4P2tX4TU7Rbh6Sm9cfrZsU3UvaZ7geEnQNkOAAAECBAgQIHBpAhsMjlmImB+4F6c/xlG1+jWBiwf8RUhovCnNecLIAuHy0bBiVLTbDW7OExzjTXQaQuksDI3DON1kJ7thzkL1V8zI6p+XXw6OtbCerlEsPm/6rJi3Ynvx42ybiwG0bX5rkclgsZziFNpsnyr2p6blYsmrfhho3frGPxAcN06qQAIECBAgQIAAgZ4FNhccUxipBqPT6UmYxEdkpGBQ+yzeyGY20pYppMBRHr2a4WSnjMb7qjTdnKXTvBBH8+KzCxevSswO9OPjPOKoYLWesypUXqwfHCurV97MRxlTeI53hV2sYmWNxjdFAI1+RTBMZ6Dmd5tdMko3C+2zZdrC2XzLhVljd5WvmezSlg7Bsdje/IeJeV2yVy3BMXdJ9YynChd3wK3te2lfza9dzTziDY+WPN4llVW1LZ792RgcU58s3hzn9KQYic5/TBmv+cNBuX11knyUu36dbJe2pu9izWix+Fjn1ftKfT3vCRAgQIAAAQIEdk9gQ8ExHw2KB5rFiFXxP5qkg9tqIEsH17UD0/bgWMAWo05LRixn4ae8TPvBbXE9YQqxDfUstlz9v5ngmE5fzYPM+GQa5qezjtID7jvdobVUselkkj0OpBQcSx/PXhYhrHF0d7ZU24v5o0/io0TiSF8WMuIpx+V1ipDWIQgl96Y+KsLgND1uZVzbX8pbax1xnAWrWFb18SfF+oXHeBJDe3595fSk/ZmjxWnH40k4mT1OZRpO0iNhxumuuwuBqiE4Ztsdh0ns+3y76c7Ao8WAWdR14f+sfbVPitBY+6Gkc1tTfavf2eoW6mcYVD/1jgABAgQIECBAYL8ENhIci4PRhZGr4kC/CGSzg+x8lC2Nrs1vhLI6OLbjdxkhWVz7dHawn46vi3qmPBRHOed1Kw7ss/9FcGz5PN5MZ3Fj2ZzTbOQzu94xjnLWRxhPKwEymsaR0OJRH63llre3IjgmqxSwm8JauaDq62ykKgbyWhicjeTVw2Phm68TA1K1yOxdcm+qSxEcG9eqldS2bB5wUmisrRLf5sGrcSSz8bOsvNbQnQfE1cGxrb75KcDFd6ehypVZeR0rI78toXG9tnZp57JgWamlNwQIECBAgAABAjsucOHgWAmNpaPXNL84+M0PbheCZdPoYKmMdWzPFxxrW0j1zA+GZwGgPHLZ9fX8gDoGzen0JAXUIixmYXAeGDOrWhiLmabhdMhkWLjWqj97uzQ45oElXXc6r+ds3YUXedCdneJZD4fFCvkIY8PpneWR1KzttQCZ3Os3SYqhfBpOxrUb3uShaHE3yQNibYRtdtfZFrNs/20KrVm76vtVtvwyt8x3dXBsq2/h2fF/PTjm75uC8LptzX5gaLLJ29hi2rHmFiNAgAABAgQIENghgQsGx/y0xThyGK9ZLB3NZ2HoJBthKgeyHKfyeT4vHaiWymh2jAfc8fqzefCKy9UP8JvXXTG3oZ7Na2QH/Surmga0StfBFadK1gpdHUayEHkSr4cbNx3IFwXGA/pJmC4LjrOg0TW4FEEoP6Wy2FTj//bnUsZTSbNTc/N9orx+Xqe2HxaqIWhen2pGbOuTbH5535xvenUAqoetLvtZfZ20vfyHiPI+kwWzxR8M5vXr8GrWnytGT4vrTpeEvYV6l8suV6VtfnkZrwkQIECAAAECBPZK4ILBcW6RDjpLR8XpfXGQmg40q6M0lc/zYjoFx/ygtRom5sFxdo1aca1a+f+8us2vGurZvGBbSGle+nThOZDFctmprlmAaBpxm58KW6yx7H924D8Kk0n+PMSmhVOAyfqiSwjKilgWCFNqT0G+ywmlTVXKTqFsCsRZsKv3dXE9Y/UOuG19ks1fLCPWpAihq0aSi313ddBMpcYfUeo3jWkIjmn76brIfPvxmsm203kb4eZhcXKSX5PZen3kum0t+ZS+163ta6uf+QQIECBAgAABAnshcLnBsXTNYBqhPM81jqXgU+6BLHwtCwDFwX95rdrrLQXHbCv5yFfT6bkr5jWHnqa656d1JqOmIDYP2CnkNYaZWrkd3s5ORS1+KOiwTmWR5N5U37bgGNfOPWfbvEBwTHf+nYf06vWs2fysvpsOjoVCHI3NTmfORl3jKGTx2Yr/+Q8pcb14s6LZjxALq+V179zWrIDsx4hy38zLWdiEGQQIECBAgAABAnsrcDnBMQ8obaciVuavOGJuGyVrm79Wz201OOaPElmo0LIRsWWflQuqhai24JiHjHkQ7RaEsi1ly84eUXF6kkbH4g2E0l8RYBZOpZ2vV65x5XVatxxOik/zdavnpBYfxhRcGuk8T3CsBel5ya2vuuxni2ErG5XNwl1r0fkHy8Jfw7q5+/xrU9sXSqt0qXtp8exlfZ9J7zv8CLNQkBkECBAgQIAAAQK7LHApwbHpQDrNm40WZYTpwHZ+BNzgmh8UNzxr8VwHxfUtdD4obgsp9QI7vF826rcQCprKy8Nf2aQlOCaj2imUWd90ePxDPUA01bulvnFEMoam+vMEZ61J650jOM4KiC/a+iSbPw/LlZVC075ZXaL6Llt+WXAq+qPWniavatHzd8lj2TbmixZ3Sq18bfJ+qF/XuW5bi62Uv1vl18Xn9f/p2ZTx5ktxWvfU23ph3hMgQIAAAQIECAxCYLPBsX7KZQqG+YF0LSSmg9javHRQWjkCrhrN1mkIRl0OaKulNbzrfMDeFlIaylw6q9lmtkpq57IAUYSUWvBr8CkCxmKAytqycE3erBLZiwXfNqvT5isdl4bHVFYtaKXNZu1brHOtcultW58sD46FSz1kFVuYTuKNmMp3gc29WvbTop0LnrXgmC3X0rcr+72oXekax/qprbXtpTVaAmVR2mJb809m9VlhmaoTw+J8H4jtLL8vtuU/AQIECBAgQIDAbglsNjiWguAs5OUHq/WDx9nnJa+lwbEWVNL6pecJLgSbUrmdX9a20b5eW0hpX6Ppk1Tn1puZFKc3toSLvMBGs3SgXw5iRcAszyvVKA8ZbeEpnhK6cJrlSqv4GJJy4IqPTIw3jWloTyqr6eZADY/jKFW7+rKtT7qFnWxENN6pN7/WcXoSJuOW+uYe2Z19i2sjp7Nngk7SDW9q1guGWb1G8YY4lWt/JyE9tqUlmFbbvCQ4pt0nXvNb9c76oHh+aIe2pg3mhstuupSWi8/trN81N+579XkLrTCDAAECBAgQIEBg4AIbC4714BZHGuKdHk8m8eC1dhCdj0yMageUjSEoAqZgUXueX5qfPzuwNNKZTo+bTNKdRePdRRemdPrcfESk0j+1MBSfI9h0o5T0fMX8ZiSLn09DcdlfpezKmyLINbSptFwWLBftSotEnOyRJ+WZKaQU6xXXzNVGJcvLl+4uWg/4hX29r7L51VBSKbK4eU0tAJ024eT9G8Nb07RQp+qG8nfnD46xgHhzmiwoFnVYfORLZbMNz9icPSKm4l9Uryl8Z2Gz/HzPUXxkyzqnd+Z2NeZ8o8V+VuwL2ey121p8X2P/NG+otL16SBQccxz/CBAgQIAAAQI7LbCx4JgCTD2PFSMzpVPXCq0YvuKNVcqrLAbH/OHzHQ5Y4yMv4nMOY1BM4TG/xqopiLQe+9aCYxbciiDR/X9r0DnNnntZBIXF5YrRq9ju/PmPrZUtJBv+z4LLPDQubqu+Xj4CFq9FrPRXLGMSKrPiqnlgSWFpGsNyVvc4yjhNISx6LQuWpe3P6lual15mwadan/oy2fvW0czmxc1dVyD/Lq/aHWM/lPvLqarrQlueAAECBAgQIDBMgQ0Gx1oD47VNMfDVRhVrS4V0XdV4EibjLJiVDzrjsnF0ZLyijHqZ536/dPTm3KWGENtQHk2LpyeWE3NRdH5wPgu7bcsVy7f9T+WMQ3bK5Oo+mBVTrNc0KjhbaP4ihttx3m+zOqc+j/OzUzDnSy95lW930SQ+piILpQtrn2YjhOlHgsL2svaThcrs/4z0I0pHXzfH2f/9QQsJECBAgACBwxPYWnDMToerniLXyJuHtXiKXvUmJI1Lb3fmtoJjfqpfDFNxZK79L566GE/xbQlL7StWPykFselJ/dTB6qK7+y4/DTPtN2uE1N1tcH81T/vTslOd+6uaLRMgQIAAAQIECFyOwNaC4+VU31YIENiOQHHjnDVv1rOdyiiVAAECBAgQIECgZwHBsecOsHkCgxTIRxnjdaqexTjIHlIpAgQIECBAgMClCgiOl8ptYwQIECBAgAABAgQIENg9AcFx9/pMjQkQIECAAAECBAgQIHCpAoLjpXLbGAECBAgQIECAAAECBHZPQHDcvT5TYwIECBAgQIAAAQIECFyqwHaCY3yGY3r0xJbbkm/npONzB7dcG8UXAumxJuP0WJFlDx8pFt/n/6cn45AeNbP4kMqs2bnVhR9FE78Lk2nYvPc0TDo+kzN71mO8mc7ma7HP+4i2ESBAgAABAgR2QWArwTEdQI7WfO7baXx24Tpk+XP8Rh2eFblOsYNatnhWYXz+42YqdnqaP2ah7f+FN1P0yzhsJdA37ifTcDIeh8n0dAvB6YIg6e6ky/bRaZis+11ZqFJhPpqHx7b+bZy/UOBsRgq+o1K5s08WX2TLLmvr4jrmECBAgAABAgQI7IbAFoJjdiA8mkw7CJyG+ID6yXgURqM4jUPnwYr8IfcpLDQeDJcDUoeqDHKRPBB0siw1oM0jzANG5l24z//HTVXCZanYLi+zHw3yENdWj8r8FaWmZafh5CR/nmDaT2rhJI3ajYY50nUJwbHph5oi8LX1c3l+++6V7y/jk06BPBtd7bbsil73MQECBAgQIECAwMAENh4ciwPW7GC0HN5Ow3Q6DdOTSZhMxmGcAkARWMZhPDkJJ/Hz0w5Da3lQKB/8Lnu99NS5/Hl17QfPzT226dGVrLzF4JxCwVqVy4N7xTdzLvrkZFwNWfMD/pZ1O26/6PtlfVH5rC2QNPZvto9M46hibR/ZdF809/g55245OBbmS/fxc1Y9rPndmO9H592g9QgQIECAAAECBIYqsOHgWBuhyA88K2EhnvY2HqcRxniw2yEm1uzycJNCR/v6p/m243VfS//WPDguytp0WGk76C6CY2UUcJ0Ru1ThaFaE0qyP0kPd83Km6Tq8fKQozps3MgX8VYRx8ekk69Nuy8YgW9Sn2Fj1/+lJ9kNCzIjLrfN9rsuGq5vY3rty/6T9K55qnP+IsrDVbH9ev/qnM/OthMbUp6NQOXMgtaV9NLnYj2ZtLdqc/19ouhkECBAgQIAAAQI7I7DR4Jgd4JevbcxHGafT7PTHGcs5D5ZP89CYrmuMB86jMGoYteocGmf1Wf/F8jBzzvIa2lKchlgP38X7ttAQg9zsBkX5DViy04DzoFUfkcyDeByNHOU3NmoLs5XWncbrC7Mg2CX8LO4jldIa3yy1zkcnJ/FHiFpQqbxvLHkbM4t9tBhNr/5f7K/iu1Cv/5JrfuP3ID+9e7G8DbUpD4nzU8eL/SYL/Kv2y2L/nP1v2Lc3VFPFECBAgAABAgQIXILABoNjccC8fCQpa1NxsNy9hTEMZqe3lsovTmmcHZTGaybno5ndS19/yaVhZv3islG1WTvmBRQjjvM53V5V1msIjq0jjvE6yDR6mJ1O3B5MonW9T2K4iHdTnY1ZVio7D43Nn1cWLr1ZZl2UOQso9UCcv29uRx7AGtxLm7/Yy2LEsVRK19DVHsSz0cZ4fW/lL904qDavskDXN1lIrJildlRPca6Xlvpim5b1DXpPgAABAgQIECBwaQIbC47zg+FSsGttxnmCY7yJTkPZRXgcxRG2YuRrEwfPrZVPHywLM8vXbP607aC7EgCbV22cW1mvITguBK3KAX8xulS7CU1tSynMVx67UoTOxbtwFgFvIezUyszeVkffsh8DSqd7zq5xzH+saE9YK05zLX7sWN7Oxip2ndkQHCsjofkoerUJ638/QunGR/FHgYv8zb7L4/idyqa0v1T2kcUttO3Di0uaQ4AAAQIECBAgsGsCGwmORSgYT+IIVEO4W1A5z4HxQiH5jPkoY3FwWx+IaVszzc9HUqoH7kXRcUQqG8EsglZx+mfW5vMFjmpwyEJS2/VhRQBsWqc+r9zOYr00LwXHoq6Lo0nZAf8k3bwoRu7iesXCc90YPhsdTkGjuBYvuzauXMe218X+VJgv/s/2sWy50v62cC1dHoAbO7fY+rqtK9br+L8hOFbXbPouxHmldlVXaH43GxHMTwtfdtpu22dFyTHMTibh5GQ6u6FV7IOljCG/FnVFuCw24T8BAgQIECBAgMBuCVw4OBbXE6ZrDSsjW8sgmg6Wly3f/Fk24pVdQ5ZOvZydzhpvwJONUDWvWZrbFhyLsvKHn2chbTo7jTPeGXZ0rmdIFqN51WvfFsPRmp/XDthjcJydalgJL0VwnIbTdJfb0uNQxpPqtXPFNaW1skt67S9nI8HZKHDL2avt688+KbyK4Jt/UJRfTjO1vswC7JoBbLbdDb0o28dTSeuDgY3fmXWDY/Z9SjeyyQ3W35/anSo/QsxYqqPC8fvR9uPHbIB4tq4XBAgQIECAAAECuyZwweBYnJqYH3SWD4LjgWT+6IT6yNjp7PS8xYPPtGy8mU6bZDpALa6ti6dEnoTqCONpmI14Fde3xdGT/FEfC+XWwka22dKBeFM9ZgfntTDTtOyF5uWhaXwS6nljVbGNwbEIW7PrAOMjLvKwmIL2SX4X1ZJSXKdyOuqqLcfPS6PA5wmd5U3M6lwONsX1lTX/8v5XLqPP13lwzJ5DWW1DClSNdV7vh5UU7Nb6EWON8lP9y/XOMWf9svoHjtkPGH32g20TIECAAAECBAhcSOCCwbG27fJB8CxcrT6wXBwdmR+oppGM6Uka6Ss/+7EcGLNTLRdPhUwBtXaqadpWOczk9SwPXC2cAllr5vx6slpwWVjuojPy4FiuXKnIeHOaamguPixGFfMAmIeXGD6jSf1ZmafTkzA5ycN6PI0xvo/XtrVst9hK0/9s3azPyzfgWfzxoPjRoKmU+bzqaavz/WK+ROlVef8rze7z5bz+8aZB8x9EZvvYyaRh5Lp7sJuVX96nVza4a/nZcoLfSlALECBAgAABAgT2XmB7wXEpXdcD1+IZfnn4jHfsjKOYtbJnB+H1D0rLxcCURn3i6FlpftNDztMIzooD8WybtbLK5Z7jdbbdchisBcBymbMRn6YwNV8vBbb8OY3F8/VCGg0+SdexxWvZ4mm3xbM1ixAf36fr3JaYVqqTwuY5fiRYGk7z4JLCf6xnLL/a3tivs1Mhy8Ex9XfHypcbsqHX5QAdT2lePFU3/1Egjf7W96Pss6U0xTWFxejxiv212qwu37/y427y63Cn8VTtOHpfLc07AgQIECBAgACB/RcYfHCMXRCvxUsBaKE/8gPaFCiqd92sj3AtrFrMWBhxzA/oVxyIbzo4FuG3etfReQAsqlv8z05PrIao4rMQsmBQhMDK/9Su+eezgFhcs7mQtRaDerGdFMZj6CzCS/y/wq1YdzZquyQdFcYn6RErMVwVYWsetGYOaTg1nmqbmRSei4FtXoPtvJrbxudhxh8r2q+Fjad6Z2G7qd/baQqH7DrW1NbO7rHVq4Nj5rr4Q0DcXwrT+nes9f12oJVKgAABAgQIECBwiQI7ERwzj9IBeTmodHi99FS73oNjEQLmB+Tz/m8Jjnmdl7ZrXsjsVWPAiKemxiVKp7OWVshCYX2UdjbamQWL4rThxvJnhdVf5O1uTUdZf8c2ZiEwD4uncaS0OOVzvkwqvTziWITMtQJVvY7nfB9vrFTUscl1VmzR90V4LD5o6ff849P8+ZlF/6/nHgtZHRxDHEGenKRrg2MgbPprC5eVHyrWuvayaSvmESBAgAABAgQIDEFgh4JjvD6vafSrFh4qqss+yxdcCI4xQ60eOauEmco2u7+JpzOm0brWm880BIgitJ0jEKU6l4ParKxJiNdLxgP+eRjJbkCUrlNsalL5usj88/UCzPLgmIWSLCy2WS/MrwTHdC5n8i3a1NSMrc9bFhxz/9gl9X0uvu9a7/XcY4s7BMcOMKnO5f2pvs6ytteX9Z4AAQIECBAgQGDQAjsVHBslG4LfbLnSgflci21hAAAOtUlEQVRsXv1Fw/pZIGkaASxWLkaK5qdMFp+s+z+dhtu6UjU4zu4Wu1ZozO5AOjnJr1mLB/rx+r90amq8YUs+mpQ7pPA4jsG56bq81oqmD9YLMO3BMfOfPzcwe1+3bvhRoB4cZ9cBLu/L5a264KdLwlM1LFZ/FFkZykrVWs89rig4lvi8JECAAAECBAgQ6CCw48ExDx9tQSodtC8LDcUpmvOQkpllB9bpuXgNiDHAZafj1cNMw8IXmlWEq5MwTUFv9UhoFgrzG97kp/HGx2nEG5pkYSQraxwf8ZEyYwyW8ZmO2bV42fWEdY9ujVgvwBRtq99pJX+cyuRkdhOkpuCY2lI/DbIhOM6upWzcR/J+rpfTrbndlmoLjvmPGm2jiqnNy0bzSltfzz2ueP7gmN2VN9v4ynDb1vZS3b0kQIAAAQIECBDYDYGdDo5ZeFgSctKB63mC4zxQZtfvFY+OKI3UFTeT2Wo/F8/JjNfAlUYHl24zBrL4KI0YDKvXpkWvalApgvc43S2zuIlLFtTqyy7daPqwCDDF3Vtbb5YSTzmOo55xZLNDOMrqMw/pRXBfWLUxOBZ92bQfTMMkja7OQ+rqVq65REt4agy+5aLjeo1ht7xQ9rpwr/b24nLzOesEx/njWbIfS+aORXBs7eeWts/r4RUBAgQIECBAgMCuCGw1OGaPSihCV/l/ceBanle8js8ZXMWXB57SNXlNa6w8OI8rpYPblvB5GoPFOB9drN4IpvFmMk2VWHde/hzF7FTS2jbXLauyfGZWBMf59ZV5aKod5M9Piy0/HqRS4MKbInBmASOr+8rXC+lvodjqzXFCduptDMYLu0lbcFws8vLm1FzThpftc0XNyuvFm+0sCZGbDo6x79NzPGc3noo/WjT/ELGyf7c5mltY+U+AAAECBAgQILB1ga0Gxyy4dQwQs4PUJSNd8fmDpcc/FCForlSEzxgu8sDXIZjM17+kV/HOoHFUsDLVnfIHxi+ko3PWMYbg0Sg9hD6OSC6MYJaDSrGJFJzzei0JLrPF8+dFdqtyHv479E99xLHY3sL/HQiOxWjp6pHW2F/Z6F76Hi3x33RwzH4UWb3/FSOOC/1QzGjap4rP/CdAgAABAgQIENgpgS0Ex5bRu4uwFHcfLcJl241b8pGc2ShI23IXqcuG1i2H6ixAxusST8J0Wr1JykU3l4J2PB0z2hWP1ThtGNVtPciPIfwk1K9EbKrXegFmU8ExjgpHu+y6zuJ026b6Xd68/AeO9MPA/LrUzteppormPrGMGPiXdMCqYBmLi31T+aEiD6UXMekSHNP1td1+SbhIVaxLgAABAgQIECCwZYHdCI6zA9942uSyo9B4DeIkjaotX27DqvXAWgTchf/z68M2XIP24tJzD+Pz+FYE0tbg2F70ZX2yasQxC+ExGHU/rXbrdc/3iWpwitesdgvhqX7xFNV4Ovay1JjOtp6H09Z25TfjGcUgmq5/bV3SBwQIECBAgAABAgQWBDYbHBeKN4MAAQIECBAgQIAAAQIEdl1AcNz1HlR/AgQIECBAgAABAgQIbFlAcNwysOIJECBAgAABAgQIECCw6wKC4673oPoTIECAAAECBAgQIEBgywKC45aBFU+AAAECBAgQIECAAIFdFxAcd70H1Z8AAQIECBAgQIAAAQJbFhActwyseAIECBAgQIAAAQIECOy6wGaD4+lpOL3AtF3M7IHq45Nlz4Hcbg2Uvj8C6dmS45Ngb9qfPtUSAgQIECBAgACBdoGNBsfsQe2jMFp48H2HeVs+CE8PiV/xIPV2Jp8QWBSwTy2amEOAAAECBAgQILCfApsPji0BcNkIzbLPNsJ+ehLGo3Ew2LgRzdZCUpCq9//pSZiMix8OztkH00n6MaKS+5vmtdbs/B9kP4ZMwrSpCPtVk4p5BAgQIECAAAECeyhwAMHRKaqXst+mEDUKlXAXpmESR5/HkzBNpzCfsyZNIbFp3jmLX7ba0uAYQtj6jx7LKuczAgQIECBAgAABApcksJXgmIWE6vWO05NxGI1P8gDR/NlWrhczKnQpu1JjgNpmuNtm2SWxVcEx2L9KWl4SIECAAAECBAjsq8Dmg+N5rm9Mo1LbudFIY6DZ197srV3ZyOLCjYdSuDvn6amr2jKU4BiMaK/qKp8TIECAAAECBAjsvsDmg2P9GrfcaFmAW/bZxYgd1F/Mr9varaNyBxEcna7abS+xFAECBAgQIECAwC4L7HlwjCNhq0e8Tk8mYVweKR2Pw2RaO3G28Rq+UtcvCUmn0/INYuKNYsZhPGkeYV1/2XHpLrax3GnjIyI6tTFds9fBotTskI+4jUoXN2ZBsrghTul/aZm43nQyXnRvuoNR0+hi07y8XplhN5e0yuk0TMbl5UdhnK7LzEPhqOXmOIVD2jdWLFMs6z8BAgQIECBAgACBHRTYSnAczDWOHa4/y0LOOExOprNnUKbrMUe1G72cMzgWISoGxZnLNN7lNd40phoet7vs6jZ2tijv6I2BOb+Gtfhsmr+frZeNBMcAfVJ8dpoFyfgol+ZTXmv90RIc1zFM1ZnmQXk8KdVlGk4mMUiOwyT9XxEKO+xns6Z7QYAAAQIECBAgQGAHBTYfHMsjd+u8roWojVimcLHsoL/9VNaFR0ucKzi2XPsXG7dQ3hrL5usuBKxSufPPurax63LlnskDYGUksfR5ERxrg7fFDWWaVkvu9RG+ppDYNG8tl1jPzLw8WlqqfQj5Nkb1+lQWmpfT1J6FRc0gQIAAAQIECBAgsIMCGw2Oy9qfRoK2EQ6XbTQd+C8LjkvCWr3chaBXWyBtq3pabDGC13T2ZW3t7LEOHU6rjetl5ba3qxp6u7ax63Klmp/DpLR288sGxyLAVYJZHurK89ZzKRyrfVatVB6MBccqi3cECBAgQIAAAQIHJ7CB4Fh9tMZpel7f4rxlj+NYWGdT3bAyOMZBpeyaw4VrGut1OEdIqga4eoHV992XzcPMkhBeD1Bd29h1uaLmK+vcFAKLldv+N63TEBIXw+Q5XZY4xirWLZurnYXucohtXs5cAgQIECBAgAABArspcPHgmB/Ux2vTNjVt7AA81a19ZC7rstP8era8/vFat3i9Y70/1w6Oq4PMfBPnWHald3kkrWMb441u0jV9KyxSxTuEpaYQOGv0aZjGmxLVbkqT7UPlusczSidp36rsFwvzcsPOLt3MBcdZh3lBgAABAgQIECBwwAIXD46r8PID/HKonF9/t2rlC36ewt6q4Fhs4zTEu3HOg1O8s2rxWdM1iaXP4suFkNQtmGSlnGPZePfUltHdYn6thrERy9s4W2H1cp0C1YJJvoE8hKebz5ychOm01JamdfJ9qNIfC/Nyw84u3cw7tTNdK1kLuzNLLwgQIECAAAECBAjsvsB2g2MREOLB/Mk43UW08Y6lW3OMo2LnOaCPd/iMo26l0LlixDELGNVtrTyVs9TubS1b2kTtZUMba0tkb5uW63g9ZFMITBm7ZlvebtM6CyGxCOrVO62uYxg32WX5TsFxrR8oyo31mgABAgQIECBAgMBuCGwvOM4ec5A9cqIIjvEU0HTAfq5Aty5qNqp0rhHOFAZKQXBFcGxqU1OYbGvB+suWQm1boavm19vYtnx9uaZw17Ru43JZ6Gy7k2mjQ8fgmK3b3aVxW5V25KOS5R8QKp9nb1I5K66VbFjNLAIECBAgQIAAAQI7I7CV4JgdkI9CDAfFtYLVg+vigDyeDlossR2z6nar2zhtDDb5MgufLQk8eahMzyUsNyef3xhc889mp1+eY9m28DWdjMM4t+/axq7LxdNdT8ZZ31Y1G94tGMZllq2fG9d/VOgYHItHnHRxyWq7pE9jTfPtVkaeF5qZtaexjxeWNYMAAQIECBAgQIDAbgpsNjieTsMkhoqGh7gvBrjSA98nJ2Fr+TEFstLIYaWf8uBQefh7ftOWeJOVWarLVioC8TjVN7tzbLrBy2gUJpN4A5fF7czXKV/HdxLGsfzaKNX5lo12+V1spydhkm42U65H1zZ2XK4xDFZQ529alm1uZ3ajnEbHrsExXYo6zva/Uh/Fa1cXXfJq5mWX+/T0dJpf6zoOk3SzoCWjmEv3rzmFVwQIECBAgAABAgR2WWAzwXF2oB3D0CQ0PbcwhYVaUIpwp/HOmsWdMFOAiwFrk6QrRoTyus/qkALdOEya7qxar29aNm/vkgARR67GeaAu7hpajAjWW7reskUgyu+COoojjQ0hvGsbOyzX5brAWZtagmPq97pJsd80Oa4RHLOyO7oUFU0/eGSBs7iJ08wxbbs9OLbt10XR/hMgQIAAAQIECBDYB4ELB8di9Ci7Q+b81NQ6ztID7HLwjKN3mx5+XBJg6vX0nkBngRRyqzfo6byuBQkQIECAAAECBAjskMCFg2Ns6zQ+UmHFKGG3karTMF1V0Dlx0/Zrp56esyirEUgC9ik7AgECBAgQIECAwKEIbCQ4dsHqFhy7lHTeZVacsnreYq13kALZSHv7KawHiaLRBAgQIECAAAECeytwacFxbwU1jAABAgQIECBAgAABAnsuIDjueQdrHgECBAgQIECAAAECBC4qIDheVND6BAgQIECAAAECBAgQ2HMBwXHPO1jzCBAgQIAAAQIECBAgcFEBwfGigtYnQIAAAQIECBAgQIDAngsIjnvewZpHgAABAgQIECBAgACBiwoIjhcVtD4BAgQIECBAgAABAgT2XEBw3PMO1jwCBAgQIECAAAECBAhcVEBwvKig9QkQIECAAAECBAgQILDnAoLjnnew5hEgQIAAAQIECBAgQOCiAoLjRQWtT4AAAQIECBAgQIAAgT0XEBz3vIM1jwABAgQIECBAgAABAhcVEBwvKmh9AgQIECBAgAABAgQI7LmA4LjnHax5BAgQIECAAAECBAgQuKiA4HhRQesTIECAAAECBAgQIEBgzwUExz3vYM0jQIAAAQIECBAgQIDARQUEx4sKWp8AAQIECBAgQIAAAQJ7LiA47nkHax4BAgQIECBAgAABAgQuKvD/AZbDZswLunC5AAAAAElFTkSuQmCC;" vertex="1" parent="1">
          <mxGeometry x="320" y="410" width="910" height="692" as="geometry" />
        </mxCell>
      </root>
    </mxGraphModel>
  </diagram>
</mxfile>
